<svg width="55" height="55" viewBox="0 0 55 55" fill="none" xmlns="http://www.w3.org/2000/svg">
<path d="M16.0415 41.25V34.5C16.0415 30.634 19.1755 27.5 23.0415 27.5H31.9582C35.8242 27.5 38.9582 30.634 38.9582 34.5V41.25" stroke="url(#paint0_linear_251_2219)" stroke-width="4" stroke-linecap="round" stroke-linejoin="round"/>
<path d="M2.2915 41.2499V38.9583C2.2915 35.1613 5.36955 32.0833 9.1665 32.0833V32.0833" stroke="url(#paint1_linear_251_2219)" stroke-width="4" stroke-linecap="round" stroke-linejoin="round"/>
<path d="M52.7085 41.2499V38.9583C52.7085 35.1613 49.6305 32.0833 45.8335 32.0833V32.0833" stroke="url(#paint2_linear_251_2219)" stroke-width="4" stroke-linecap="round" stroke-linejoin="round"/>
<path d="M27.5 27.5C31.297 27.5 34.375 24.422 34.375 20.625C34.375 16.828 31.297 13.75 27.5 13.75C23.703 13.75 20.625 16.828 20.625 20.625C20.625 24.422 23.703 27.5 27.5 27.5Z" stroke="url(#paint3_linear_251_2219)" stroke-width="4" stroke-linecap="round" stroke-linejoin="round"/>
<path d="M9.16683 32.0834C11.6981 32.0834 13.7502 30.0314 13.7502 27.5001C13.7502 24.9688 11.6981 22.9167 9.16683 22.9167C6.63552 22.9167 4.5835 24.9688 4.5835 27.5001C4.5835 30.0314 6.63552 32.0834 9.16683 32.0834Z" stroke="url(#paint4_linear_251_2219)" stroke-width="4" stroke-linecap="round" stroke-linejoin="round"/>
<path d="M45.8333 32.0834C48.3646 32.0834 50.4167 30.0314 50.4167 27.5001C50.4167 24.9688 48.3646 22.9167 45.8333 22.9167C43.302 22.9167 41.25 24.9688 41.25 27.5001C41.25 30.0314 43.302 32.0834 45.8333 32.0834Z" stroke="url(#paint5_linear_251_2219)" stroke-width="4" stroke-linecap="round" stroke-linejoin="round"/>
<defs>
<linearGradient id="paint0_linear_251_2219" x1="38.3349" y1="27.9351" x2="32.5194" y2="46.048" gradientUnits="userSpaceOnUse">
<stop stop-color="#FFF200"/>
<stop offset="0.464" stop-color="#E7B510"/>
<stop offset="0.924" stop-color="#FFF200"/>
</linearGradient>
<linearGradient id="paint1_linear_251_2219" x1="8.97953" y1="32.3733" x2="2.68181" y2="41.2" gradientUnits="userSpaceOnUse">
<stop stop-color="#FFF200"/>
<stop offset="0.464" stop-color="#E7B510"/>
<stop offset="0.924" stop-color="#FFF200"/>
</linearGradient>
<linearGradient id="paint2_linear_251_2219" x1="46.0205" y1="32.3733" x2="52.3182" y2="41.2" gradientUnits="userSpaceOnUse">
<stop stop-color="#FFF200"/>
<stop offset="0.464" stop-color="#E7B510"/>
<stop offset="0.924" stop-color="#FFF200"/>
</linearGradient>
<linearGradient id="paint3_linear_251_2219" x1="34.001" y1="14.1851" x2="25.6894" y2="29.7175" gradientUnits="userSpaceOnUse">
<stop stop-color="#FFF200"/>
<stop offset="0.464" stop-color="#E7B510"/>
<stop offset="0.924" stop-color="#FFF200"/>
</linearGradient>
<linearGradient id="paint4_linear_251_2219" x1="13.5009" y1="23.2068" x2="7.95979" y2="33.5617" gradientUnits="userSpaceOnUse">
<stop stop-color="#FFF200"/>
<stop offset="0.464" stop-color="#E7B510"/>
<stop offset="0.924" stop-color="#FFF200"/>
</linearGradient>
<linearGradient id="paint5_linear_251_2219" x1="50.1674" y1="23.2068" x2="44.6263" y2="33.5617" gradientUnits="userSpaceOnUse">
<stop stop-color="#FFF200"/>
<stop offset="0.464" stop-color="#E7B510"/>
<stop offset="0.924" stop-color="#FFF200"/>
</linearGradient>
</defs>
</svg>
