<svg width="1773" height="105" viewBox="0 0 1773 105" fill="none" xmlns="http://www.w3.org/2000/svg">
<path d="M3 54.2353C12.9304 69.9933 18.182 96.5236 42.0368 101.509C79.6925 109.38 33.2222 20.1141 70.2871 9.94677C112.371 -1.59726 87.1621 95.0131 130.383 101.509C180.316 109.014 161.307 -5.26478 211.025 3.47755C238.243 8.26349 245.439 27.8608 265.985 46.7708C287.842 66.8878 304.246 83.9226 334.299 81.6044C363.775 79.3307 366.79 31.1573 395.423 38.3111C423.133 45.2347 412.691 100.5 437.5 100.5C464.5 98.5 460.866 45.2347 488.577 38.3111C517.21 31.1573 520.225 79.3307 549.701 81.6044C579.754 83.9226 596.158 66.8878 618.015 46.7708C638.561 27.8608 645.757 8.26349 672.975 3.47755C722.693 -5.26478 703.684 109.014 753.617 101.509C796.838 95.0131 771.629 -1.59726 813.713 9.94677C850.778 20.1141 804.307 109.38 841.963 101.509C865.818 96.5236 871.5 53 886.5 53C897.5 52.5 907.182 96.5236 931.037 101.509C968.693 109.38 922.222 20.1141 959.287 9.94677C1001.37 -1.59726 976.162 95.0131 1019.38 101.509C1069.32 109.014 1050.31 -5.26478 1100.03 3.47755C1127.24 8.26349 1134.44 27.8608 1154.98 46.7708C1176.84 66.8878 1193.25 83.9226 1223.3 81.6044C1252.77 79.3307 1255.79 31.1573 1284.42 38.3111C1312.13 45.2347 1301.69 100.5 1326.5 100.5C1353.5 98.5 1349.87 45.2347 1377.58 38.3111C1406.21 31.1573 1409.22 79.3307 1438.7 81.6044C1468.75 83.9226 1485.16 66.8878 1507.02 46.7708C1527.56 27.8608 1534.76 8.26349 1561.97 3.47755C1611.69 -5.26478 1592.68 109.014 1642.62 101.509C1685.84 95.0131 1660.63 -1.59726 1702.71 9.94677C1739.78 20.1141 1693.31 109.38 1730.96 101.509C1754.82 96.5236 1760.07 69.9933 1770 54.2353" stroke="url(#paint0_linear_507_4364)" stroke-width="5" stroke-dasharray="4 4"/>
<defs>
<linearGradient id="paint0_linear_507_4364" x1="1721.94" y1="6.13291" x2="1717.63" y2="149.86" gradientUnits="userSpaceOnUse">
<stop stop-color="#FFF200"/>
<stop offset="0.564" stop-color="#ECBF2A"/>
<stop offset="1" stop-color="#6219E8"/>
</linearGradient>
</defs>
</svg>
