<svg width="257" height="60" viewBox="0 0 257 60" fill="none" xmlns="http://www.w3.org/2000/svg">
<path fill-rule="evenodd" clip-rule="evenodd" d="M42.8037 0.0331667C39.0693 0.0921304 38.8924 0.101958 38.6369 0.298504C38.0571 0.730905 37.9588 0.956934 37.9097 2.08707L37.8605 3.13859L37.0252 3.20739C36.5633 3.23687 35.728 3.27618 35.158 3.27618C33.9886 3.29583 33.5463 3.44324 33.0452 3.96409L32.7503 4.27856L32.7012 7.27589L32.6521 10.2732L28.1806 10.2634C25.7238 10.2634 22.8837 10.3027 21.8617 10.3617C19.798 10.4599 19.3459 10.5877 18.943 11.1478L18.717 11.4721L18.756 19.87C5.31639 28.4503 -2.20727 39.1103 0.574427 47.7213C4.59853 60.1783 28.6882 63.7011 54.7039 55.7718C78.7031 55.7937 79.7811 55.7882 79.9063 55.44C79.9121 55.4237 79.9159 55.4066 79.9199 55.3887C79.9264 55.3593 79.9333 55.3277 79.9509 55.2939C80.0884 55.0483 79.9214 54.5569 79.6462 54.4193C79.5479 54.3603 78.9779 54.321 78.3785 54.321H77.2877L77.2919 45.7289C91.3262 37.0499 99.2723 26.0917 96.4256 17.2794C93.0523 6.83702 75.5788 2.67275 54.6905 6.26972C54.6733 5.31069 54.6474 4.70094 54.6161 4.62252C54.4785 4.23925 54.1542 4.09184 53.1911 3.97391C52.1101 3.83633 50.8031 3.60048 50.6655 3.52186C50.6065 3.48255 50.5869 2.99118 50.6065 2.28362L50.636 1.10434L50.2429 0.760386C49.5845 0.170748 49.1717 0.0429945 47.8647 0.00368532C47.2259 -0.00614197 44.946 0.00368477 42.8037 0.0331667ZM53.2402 6.53094V10.2732C53.2402 13.0052 53.2697 15.2753 53.309 15.3146C53.3484 15.3539 53.5842 15.1672 53.8299 14.9117C54.0756 14.6562 54.3704 14.3614 54.4981 14.2729L54.7143 14.096V9.48703C54.7143 8.22696 54.7057 7.11324 54.6905 6.26972C54.2089 6.35266 53.7254 6.43973 53.2402 6.53094ZM50.694 7.04463C51.5474 6.8608 52.3964 6.6896 53.2402 6.53094V5.29077L52.1199 5.17284C51.5008 5.11388 50.9308 5.02544 50.8424 4.99595C50.746 4.9574 50.7084 5.19615 50.694 7.04463ZM49.395 7.33345C49.4018 8.39966 49.4047 9.87215 49.4076 11.9045C49.4076 15.9436 49.4371 19.2652 49.4567 19.2947C49.4862 19.3143 49.7712 19.0686 50.0955 18.7345L50.6852 18.135V11.5311C50.6852 9.45275 50.6863 8.02315 50.694 7.04463C50.2621 7.13766 49.8291 7.23393 49.395 7.33345ZM46.2622 8.10392C47.3116 7.82838 48.3563 7.57161 49.395 7.33345C49.379 4.80115 49.3414 4.56064 49.2307 4.55373C49.1423 4.55373 46.5675 4.56356 43.5112 4.58321C40.4549 4.60286 37.094 4.60286 36.0326 4.58321L34.1065 4.56355L34.0377 5.05492C33.9984 5.32025 33.9787 6.80417 33.9787 8.33723C33.9984 11.1871 33.9689 11.4525 33.6151 11.5802C33.5169 11.6196 30.4213 11.6785 26.736 11.708L20.024 11.767L20.063 19.0536C19.6214 19.3235 19.1857 19.5957 18.756 19.87L18.7857 26.2543L18.7759 54.2719L17.577 54.321C16.2601 54.38 16.1225 54.439 16.0144 54.9696C15.9751 55.176 16.0144 55.3332 16.152 55.5003L16.3486 55.746L47.8745 55.7656L54.7039 55.7718C55.1014 55.6507 55.4993 55.5268 55.8976 55.4003C56.9853 55.0549 58.0589 54.6948 59.1175 54.321H63.4213H67.9321L67.991 52.9747C68.0116 52.5889 68.0295 51.7375 68.0418 50.6909C68.5093 50.4739 68.9725 50.2543 69.4314 50.0321C69.4258 52.4344 69.4258 54.233 69.4258 54.2817C69.4356 54.3505 69.8975 54.3898 70.8115 54.3898L72.1873 54.3997V48.6409C72.635 48.4053 73.078 48.1674 73.5162 47.9272C73.5094 48.8449 73.502 49.5623 73.4943 50.0265L73.4353 54.321H74.6245H75.8135L75.8251 46.6146C76.3211 46.3221 76.81 46.0269 77.2919 45.7289L77.2975 34.2635C77.3073 16.2304 77.2975 14.1863 77.1599 13.98C76.9142 13.6065 76.639 13.5083 75.6563 13.4591L74.7522 13.41L74.6834 13.1152C74.6539 12.9579 74.6539 12.4174 74.6932 11.9261C74.7326 11.3954 74.7129 10.9237 74.6539 10.7763C74.4967 10.3439 74.1271 9.78549 72.8889 9.52016C71.9726 9.3127 70.4675 9.4702 70.1184 9.51113C70.0738 9.51343 70.0476 9.5164 70.0444 9.52016L70.0446 9.52032L70.0452 9.52094L70.0468 9.52257L70.0495 9.52521C70.4321 9.90784 70.6075 10.0832 70.7031 10.1849C70.7713 10.2626 70.8236 10.3263 70.8515 10.3653C70.8077 10.3041 70.7839 10.2708 70.7031 10.1849C70.6878 10.1675 70.6717 10.1493 70.6549 10.1306L70.7556 10.2313C71.1407 10.6165 71.1539 11.1566 71.085 11.5708C70.9784 11.7188 70.9097 11.9168 70.9097 12.1816C70.9097 12.6411 70.1898 12.9761 69.8065 13.1544C69.6734 13.2164 69.5808 13.2594 69.5732 13.2822C69.5667 13.3006 69.5625 13.3141 69.5592 13.3248L69.5592 13.3249L69.5544 13.34C69.5527 13.3449 69.551 13.3492 69.549 13.3534C69.5404 13.3715 69.5255 13.3866 69.4769 13.4364L69.4768 13.4365L69.4767 13.4366L69.4766 13.4367C69.4262 13.4883 69.3395 13.5769 69.1859 13.7443C69.1124 13.928 68.7867 14.3066 68.6483 14.4676L68.6481 14.4678L68.6481 14.4678L68.6222 14.4979L69.1859 14.7858C69.2245 14.7888 69.2458 14.7913 69.2633 14.7934L69.2776 14.795C69.3491 14.8029 69.4215 14.8024 70.5994 14.7934H70.5995H70.5996H70.5997L71.6021 14.7858L72.1873 14.8153V34.6075V48.6409C71.2873 49.1145 70.3684 49.5786 69.4314 50.0321C69.4325 49.5261 69.4339 48.9932 69.4356 48.4443L69.4455 42.7248L69.1507 42.43L68.8657 42.1352H63.5393H58.2129L57.9279 42.4202L57.6429 42.7052V48.5131V54.3112L56.2081 54.3407C55.4219 54.3603 54.7537 54.3309 54.7242 54.2915C54.7045 54.2522 54.6947 47.0783 54.7143 38.3517C54.726 29.927 54.7238 30.4181 54.7202 31.264V31.2641V31.2651L54.7201 31.2682C54.7176 31.8504 54.7143 32.5936 54.7143 30.7167C54.6779 30.6803 54.6603 30.6225 54.6436 30.568C54.5974 30.4166 54.5588 30.2904 54.1469 30.7167C53.6851 31.1982 53.2992 31.7367 53.3484 31.8841C53.3602 32.2845 53.3693 32.5832 53.3762 32.8085V32.8087C53.3939 33.3909 53.3968 33.4835 53.3926 33.5757L53.3913 33.6012L53.3896 33.6312L53.3896 33.6314C53.3768 33.8469 53.3429 34.4185 53.3484 39.0592L53.368 54.2719L52.0413 54.3014L50.7146 54.3309V40.9854C50.7146 26.5098 50.7146 37.5088 50.7146 33.7212C50.6585 33.7633 50.4208 34.1798 50.1595 34.6376L50.1595 34.6377L50.1593 34.638L50.1591 34.6384C49.8717 35.1419 49.556 35.695 49.4222 35.8545C49.4222 35.8545 49.4222 36.5656 49.4567 39.2361C49.4666 44.8573 49.4567 50.5572 49.4174 51.9133L49.3683 54.3702H48.1497L36.5067 54.3333L41.6047 54.321L32.3938 54.3203L32.3556 54.3201L32.2925 47.6188C32.2925 41.8207 32.2925 41.7716 32.0862 41.5455C31.9781 41.4276 31.7619 41.2802 31.6243 41.2212C31.2803 41.0935 22.6225 41.2114 22.249 41.349C21.7086 41.5652 21.7085 41.5848 21.6889 47.7248L21.6889 47.7269C21.6826 49.6997 21.6843 50.6788 21.6864 51.8733V51.874C21.6876 52.5596 21.6889 53.3162 21.6889 54.3723L20.1026 54.38V26.4606L20.063 19.0536C24.8253 16.1428 30.2742 13.4948 36.2297 11.2789C36.2532 11.8641 36.2966 12.3469 36.3562 12.4662C36.6609 13.046 36.9066 13.1148 38.4691 13.0853C39.9629 13.046 40.3363 12.9576 40.5427 12.5743C40.6016 12.4564 40.6606 11.6112 40.6802 10.5794L40.6942 9.73089C40.8301 9.68716 40.9661 9.64365 41.1024 9.60036C41.7034 9.4095 42.3034 9.22475 42.9024 9.04607V10.551C42.9024 12.0743 42.9319 12.3691 43.0695 12.5755C43.3938 13.0472 43.4626 13.057 45.1529 13.0668H46.7547L47.0888 12.7327L47.423 12.3986V10.5707V8.74282L47.1478 8.43818C46.951 8.21676 46.8196 8.12622 46.2622 8.10392ZM46.2622 8.10392C45.1471 8.3967 44.0267 8.71069 42.9024 9.04607V8.76248L43.1972 8.45783C43.5015 8.16335 43.5117 8.16301 44.6967 8.12384L44.7008 8.1237C45.4435 8.10164 45.929 8.09059 46.2622 8.10392ZM39.4346 10.1451C39.8523 10.0049 40.2722 9.86679 40.6942 9.73089L40.7097 8.7908L40.3854 8.4665L40.071 8.15203H38.5182C37.3291 8.16186 36.8869 8.19134 36.6904 8.30927C36.543 8.38788 36.3759 8.53529 36.3169 8.64339C36.2095 8.83925 36.1874 10.2252 36.2297 11.2789C36.6111 11.137 36.9945 10.9968 37.38 10.8585C37.3689 11.0938 37.3539 11.3046 37.339 11.4343L37.2702 11.8864H38.1939C38.705 11.8864 39.1668 11.8471 39.2258 11.8078C39.2946 11.7685 39.3732 11.2476 39.4125 10.5302L39.4346 10.1451ZM39.4346 10.1451C38.7436 10.3771 38.0587 10.615 37.38 10.8585C37.3908 10.6304 37.3979 10.3793 37.3979 10.1568V9.3313H38.4396H39.4813L39.4346 10.1451ZM32.3938 54.3203L36.5067 54.3333L28.7503 54.3519C29.3386 54.3417 29.331 54.3356 28.1905 54.3407L23.0549 54.3656L22.9959 52.9747C23.0254 52.7192 23.0549 50.2525 23.0549 47.4911V42.4693H26.976H30.9069L30.956 42.7641C30.9855 42.9214 31.0052 45.388 31.0052 48.2379L31.0101 50.8323L30.9333 54.3201L32.3938 54.3203ZM70.9097 12.1816L70.9097 13.3903H72.0202H73.1209L73.1504 12.329C73.17 11.5231 73.1504 11.2775 73.0521 11.2775L73.052 11.2775C72.9874 11.2682 72.6222 11.216 72.2215 11.145C72.0214 11.1342 71.3939 11.1422 71.085 11.5708C71.0267 11.9213 70.9097 12.1816 70.9097 12.1816ZM70.0444 9.52016C70.1207 9.51526 70.1937 9.5108 70.2637 9.50673C70.2046 9.50779 70.1552 9.50923 70.1184 9.51113C70.0706 9.51674 70.0444 9.52016 70.0444 9.52016ZM75.8251 46.6146L75.843 34.637C75.8627 23.8171 75.8725 14.9529 75.8725 14.943C75.8725 14.9332 75.3517 14.8939 74.7129 14.8546L73.5631 14.7858V30.2638C73.5631 37.0992 73.5441 44.1819 73.5162 47.9272C74.3015 47.4967 75.0714 47.0589 75.8251 46.6146ZM68.0418 50.6909C65.2133 52.0042 62.2304 53.2219 59.1175 54.321H58.9204V48.8571V43.3931L63.4901 43.4324L68.0598 43.4619V47.55C68.0598 48.6227 68.0531 49.7377 68.0418 50.6909ZM72.2751 11.1499C72.2817 11.1505 72.2846 11.1507 72.2842 11.1505C72.2835 11.1501 72.2708 11.1484 72.2485 11.1467C72.2605 11.1483 72.2692 11.1493 72.2751 11.1499ZM46.4594 2.26397V3.0698L45.5553 3.13859C45.0541 3.16807 43.4523 3.18773 41.988 3.16807L39.3346 3.13859L39.3051 2.30327L39.2757 1.46795L42.8725 1.45813H46.4594V2.26397ZM49.1717 1.5564C49.1717 1.5564 49.1619 1.91018 49.1324 2.32293L49.0931 3.08945H48.5133H47.9335V2.25414V1.40899L48.5526 1.47778L48.7567 1.50153C48.9922 1.52879 49.164 1.54867 49.1717 1.5564ZM46.1454 11.7893V10.5117C46.1454 9.80417 46.1159 9.24401 46.0766 9.25384C46.0275 9.26367 45.5656 9.29315 45.0448 9.30298L44.0817 9.34229V10.5609V11.7893H45.1135H46.1454ZM58.3311 11.3097C61.8395 7.63428 63.746 5.70813 64.0801 5.50176C64.7287 5.08901 65.3478 5.38383 66.0455 6.43535C66.6057 7.2805 68.5417 9.00028 69.7111 9.68819C70.3499 10.0616 70.6152 10.4351 70.6152 10.9363C70.6054 11.29 70.4285 11.5259 69.3868 12.6069C68.4139 13.5995 66.419 15.7516 65.4657 16.813C64.3946 18.0119 60.9157 21.6971 59.1173 23.5545C58.0658 24.6355 56.5622 26.2079 55.7858 27.0432C55.2952 27.5583 54.5941 28.3031 53.9309 29.0076C53.5314 29.4321 53.1456 29.8419 52.8278 30.1781C51.9827 31.0724 50.4103 32.743 49.3293 33.9026C48.7368 34.5386 48.0361 35.2889 47.415 35.9538C46.9133 36.491 46.4635 36.9725 46.1649 37.2931C45.5065 38.0006 44.3764 39.2094 43.659 39.9759C42.7942 40.9193 42.2635 41.4107 42.0473 41.4893C41.5264 41.6564 41.0744 41.4598 40.2882 40.713C40.0704 40.5009 39.5114 39.9744 38.8279 39.3306L38.8265 39.3293L38.8248 39.3277L38.8239 39.3269L38.8191 39.3224L38.8184 39.3217C38.3326 38.8641 37.7845 38.3478 37.2516 37.8434C34.6375 35.3767 28.6134 29.3919 28.4561 29.0971C28.1908 28.5959 28.4168 28.2814 30.6771 25.9917C31.5321 25.1269 32.6524 23.9673 33.1536 23.4169C34.097 22.3851 34.4213 22.1983 34.9421 22.3654C35.0502 22.4047 36.5538 23.8493 38.2638 25.5691L41.3692 28.7138L42.4109 27.6525C42.7081 27.3501 43.2405 26.8019 43.8506 26.1737L43.8548 26.1694L43.8582 26.1658L43.8592 26.1648C44.4169 25.5906 45.0387 24.9503 45.6048 24.3702C46.7939 23.1516 49.6045 20.2722 51.8451 17.9824C54.0955 15.6927 57.0044 12.6855 58.3311 11.3097ZM68.0208 10.0813C67.5098 9.67836 66.5369 8.76442 65.8687 8.06668C65.2004 7.35912 64.6304 6.78913 64.6009 6.78913C64.5321 6.78913 58.2427 13.1867 57.4467 14.0613C57.368 14.1498 55.4222 16.1447 53.1226 18.4934C45.8603 25.9131 44.7596 27.0432 43.1578 28.7237C41.8311 30.129 41.5559 30.3746 41.3102 30.3746C41.0646 30.3746 40.6125 29.9717 38.2539 27.6427C36.7307 26.1489 35.3058 24.7141 35.0896 24.4586C34.8734 24.2129 34.667 23.9967 34.6375 23.9967C34.5294 23.9771 31.5419 27.053 30.8736 27.8687C30.51 28.3011 30.2349 28.704 30.2447 28.7728C30.3135 29.0381 41.379 40.0054 41.5952 40.0054C41.7033 40.0054 43.7081 37.9613 44.8284 36.7133C45.3099 36.1728 46.8725 34.5021 48.3073 32.9985C50.9115 30.2665 51.3537 29.7948 54.3904 26.4929C55.2748 25.52 57.2992 23.3973 58.8618 21.7758C60.4342 20.1543 62.891 17.55 64.3258 15.9777C65.7605 14.4151 67.3329 12.7052 67.8243 12.1941C67.9015 12.1134 67.9742 12.0379 68.0423 11.9672C68.5986 11.3892 68.851 11.1269 68.825 10.8961C68.8033 10.7043 68.5896 10.5343 68.1983 10.223L68.1978 10.2226C68.1424 10.1785 68.0834 10.1315 68.0208 10.0813ZM23.532 18.1886C22.3822 18.2771 22.2643 18.5031 22.2643 20.7437C22.2643 23.2791 22.2839 23.2988 24.554 23.2988C26.2247 23.2988 26.5588 23.2202 26.8045 22.778C26.9814 22.4537 26.9224 18.906 26.7259 18.6112C26.4016 18.11 25.753 18.0215 23.532 18.1886ZM25.7038 20.6946V22.0213H24.5737H23.4435V20.7437V19.476L24.5049 19.4367C25.0847 19.4268 25.5859 19.3974 25.635 19.3875C25.6743 19.3777 25.7038 19.9673 25.7038 20.6946ZM36.0814 19.4658C36.2092 18.6796 36.5335 18.2177 36.9953 18.1686C37.1329 18.1489 37.7914 18.1293 38.4596 18.1096C39.8158 18.0801 40.1204 18.1686 40.4447 18.7091C40.6216 18.9842 40.6413 19.2103 40.6413 20.7237V22.4238L40.258 22.8365C39.7961 23.3181 39.7372 23.2984 39.3342 22.3845C39.1377 21.9521 39.1082 21.8243 39.2261 21.8243C39.3342 21.8243 39.3637 21.5983 39.3637 20.5959V19.3675H38.2827H37.2017L37.2607 20.0652L37.3295 20.7531L36.9953 20.6156L36.9518 20.5972C36.7639 20.5182 36.4894 20.4026 36.3074 20.3207L35.9536 20.1733L36.0814 19.4658ZM43.5213 18.2374C42.9808 18.4732 42.9316 18.6501 42.8727 20.6549C42.8137 22.3354 42.8235 22.5024 43.0004 22.7874C43.2068 23.1216 43.305 23.1609 43.5802 23.0036C43.7473 22.925 44.1109 22.1487 44.0716 21.9619C44.0618 21.9128 44.0618 21.3133 44.0716 20.6156L44.0814 19.3675H45.1133H46.1451V19.8098C46.1451 20.3011 46.2238 20.3503 46.4891 20.0554C46.5874 19.9375 46.8232 19.7606 47.0001 19.6525C47.5504 19.3086 47.5308 18.6993 46.951 18.3258C46.6168 18.1096 43.9831 18.031 43.5213 18.2374ZM29.2425 18.9748C29.2917 18.7881 29.4587 18.5326 29.6061 18.4146C29.8617 18.1984 29.9698 18.1886 31.493 18.1886H33.0948L33.429 18.5227C33.714 18.8077 33.7631 18.9256 33.7631 19.3089C33.7631 19.7315 33.7533 19.7511 33.4486 19.8003C32.6624 19.9379 32.5347 19.9182 32.5052 19.6823C32.4757 19.476 32.4364 19.4661 31.4045 19.4661H30.3432L30.3629 20.6159C30.3727 21.2547 30.412 21.8247 30.4513 21.8935C30.5397 22.0311 30.2941 22.6698 30.0582 22.9254C29.9206 23.0826 29.8813 23.0826 29.6258 22.9548C29.4686 22.8664 29.3015 22.719 29.2425 22.6207C29.1148 22.375 29.1148 19.4268 29.2425 18.9748ZM22.7949 26.2366C22.3429 26.5118 22.2643 26.8656 22.2643 28.6934C22.2643 30.1577 22.2839 30.3543 22.4608 30.6491C22.7655 31.1404 23.1585 31.2584 24.554 31.2584C26.0478 31.2584 26.1067 31.2191 25.7038 30.5017C25.3893 29.9415 25.2321 29.8825 24.1708 29.8825H23.5418V28.605V27.3274H24.3083C24.7211 27.3274 25.2321 27.298 25.4385 27.2685C25.7628 27.2095 25.8021 27.2292 25.8021 27.4159C25.8021 27.524 25.8414 27.6223 25.8905 27.6223C26.0281 27.6223 26.8831 26.7476 26.8831 26.6002C26.8831 26.5216 26.7357 26.3644 26.549 26.2563C26.2541 26.0696 26.0674 26.0499 24.6621 26.0499C23.2961 26.0499 23.0603 26.0794 22.7949 26.2366ZM57.9967 27.6329C58.3014 27.3479 58.7141 27.0334 58.9106 26.9253C59.1662 26.7878 59.3824 26.7484 59.6968 26.7878C59.9327 26.8172 60.5027 26.8369 60.9547 26.8369C61.7704 26.8369 61.7999 26.8467 62.1143 27.1612L62.4288 27.4757L62.478 29.3429L62.4789 29.3748C62.5184 30.7822 62.5377 31.4717 62.2026 31.8095C61.8808 32.1338 61.232 32.1338 59.9603 32.1338H59.9602H59.9327C59.0581 32.1436 58.2326 32.1043 58.095 32.0454C57.9574 31.9962 57.751 31.8095 57.6429 31.6326C57.466 31.3476 57.4464 31.1314 57.4464 29.7261V28.1341L57.9967 27.6329ZM61.2004 30.7285C61.2397 30.6695 61.279 30.0602 61.279 29.3625V28.1144H59.9425H58.5962L58.665 28.5665C58.6944 28.822 58.7239 29.4411 58.7239 29.9423V30.8661L59.9327 30.8464C60.6599 30.8366 61.1611 30.7875 61.2004 30.7285ZM65.0823 27.1412C64.6696 27.4557 64.6008 27.8881 64.6401 29.8142L64.6696 31.5733L64.9939 31.8583L65.3084 32.1433H67.0871C68.9543 32.1433 69.3081 32.0745 69.5341 31.6617C69.5931 31.5438 69.6324 30.6888 69.6324 29.5882L69.6325 29.3499C69.6336 28.1163 69.6341 27.5146 69.3336 27.2203C69.0475 26.9401 68.4884 26.9385 67.397 26.9355L67.1657 26.9348C65.4656 26.9348 65.3182 26.9446 65.0823 27.1412ZM68.3548 29.4997V30.8952L67.9028 30.8264C67.6473 30.7969 67.0969 30.7675 66.6744 30.7675H65.898V29.4408V28.1141H67.1264H68.3548V29.4997ZM64.3652 22.3552C64.3259 20.429 64.3947 19.9966 64.8074 19.6821C65.0433 19.4856 65.1907 19.4758 66.8908 19.4758L67.122 19.4765C68.2135 19.4795 68.7726 19.481 69.0587 19.7612C69.3592 20.0556 69.3587 20.6573 69.3576 21.8909L69.3574 22.1291C69.3574 23.2298 69.3181 24.0848 69.2592 24.2027C69.0331 24.6154 68.6794 24.6842 66.8122 24.6842H65.0334L64.719 24.3992L64.3947 24.1143L64.3652 22.3552ZM68.0799 23.4362V22.0407V20.655H66.8515H65.6231V21.9817V23.3084H66.3994C66.822 23.3084 67.3723 23.3379 67.6278 23.3674L68.0799 23.4362ZM22.8342 33.9714C22.3331 34.2368 22.2643 34.5218 22.2643 36.3791C22.2643 37.9318 22.2839 38.0891 22.4805 38.4035C22.7949 38.9342 23.0799 38.9932 24.8488 38.9244H24.8489H24.8489H24.8489H24.849H24.849C26.0687 38.886 26.3362 38.8776 26.5071 38.7448C26.5551 38.7075 26.5955 38.6604 26.6472 38.6001C26.8831 38.3249 26.8831 38.2954 26.8831 36.3889L26.8825 36.2296C26.8783 34.9736 26.8763 34.3705 26.574 34.081C26.2947 33.8135 25.7591 33.8137 24.7287 33.8142L24.6032 33.8142C23.4632 33.824 23.0308 33.8535 22.8342 33.9714ZM25.7038 36.3201V37.637L24.6228 37.6174L23.5418 37.5977V36.3496V35.1016L24.3575 35.0623C24.7997 35.0524 25.2812 35.0229 25.4385 35.0131L25.7038 34.9935V36.3201ZM29.1836 37.8921C29.0952 37.273 29.2131 34.6393 29.3409 34.3936C29.4784 34.1381 29.5276 34.1479 30.0091 34.6098L30.4219 35.0127V36.2805V37.5482H31.0312C31.3653 37.5482 31.8861 37.499 32.181 37.4401C32.6428 37.3418 32.7902 37.3516 33.1047 37.4794C33.5764 37.6858 33.5961 38.0297 33.1637 38.5604L32.8689 38.924H31.3555H29.8519L29.5571 38.6488C29.3409 38.4425 29.2426 38.2361 29.1836 37.8921ZM57.751 34.4921L57.4464 34.777V36.713C57.4464 38.8062 57.5053 39.0814 57.9869 39.2976C58.1539 39.3762 58.8419 39.4155 60.0015 39.4155H61.7606L62.1045 39.0814L62.4583 38.7571V36.8309V34.9048L62.1537 34.551L61.849 34.2071H59.9523H58.0557L57.751 34.4921ZM61.279 36.7622V38.138H59.9523H58.6257V36.7622V35.3863H59.9523H61.279V36.7622ZM64.7073 34.8652L65.0218 34.5409L65.3461 34.2068H67.2329H69.1198L69.3753 34.5114L69.6308 34.8161V36.8012V38.7863L69.3261 39.0811L69.0313 39.3661L67.2133 39.3956C65.1888 39.4349 65.0611 39.3956 64.7564 38.806C64.609 38.5308 64.5992 38.2458 64.6483 36.6735L64.7073 34.8652ZM68.4613 38.0394L68.4318 36.7324L68.4024 35.4352L67.1543 35.4057L65.8964 35.3762V36.7128V38.0394H67.1838H68.4613ZM36.761 42.0491C36.1812 42.4127 36.1714 42.4323 36.1419 44.4764L36.1124 46.3731L36.4171 46.7269L36.7316 47.0806H38.3727C40.1711 47.0806 40.3087 47.0413 40.6035 46.4812C40.7214 46.2355 40.7411 46.0095 40.6821 45.3117L40.6232 44.4469L40.2497 44.3388C39.5815 44.1423 39.493 44.1816 39.4242 44.6828C39.3948 44.9383 39.3653 45.2724 39.3653 45.4198V45.7048H38.4612C37.96 45.7048 37.4883 45.6655 37.4195 45.6262C37.331 45.5574 37.3015 45.2036 37.3212 44.1718C37.3507 42.8352 37.3605 42.8058 37.5767 42.7763C37.6946 42.7566 37.7929 42.737 37.7929 42.7271C37.7929 42.7229 37.7799 42.6852 37.7596 42.6263L37.7595 42.6259C37.733 42.5492 37.6942 42.4365 37.6553 42.3144C37.4883 41.8525 37.2131 41.7641 36.761 42.0491ZM45.9681 42.9531C45.8895 42.9531 45.9092 42.4716 45.9976 42.1866C46.0861 41.9114 46.8821 42.1276 47.2457 42.5305C47.4029 42.6976 47.4127 42.904 47.3538 44.6238C47.3066 46.14 47.2972 46.4441 47.1547 46.6608C47.119 46.7151 47.0748 46.764 47.0196 46.8251L46.7543 47.1297H45.2409C42.9806 47.1297 42.8037 47.0216 42.8037 45.5573C42.8037 44.6827 42.8037 44.6729 43.0789 44.555C43.5015 44.3682 43.8258 44.3584 43.8553 44.5255C43.8651 44.6041 43.9044 44.9284 43.9339 45.233L43.9928 45.7834L45.0247 45.7932L46.0467 45.803V44.3781C46.0467 43.5919 46.0074 42.9531 45.9681 42.9531Z" fill="#FFF200"/>
<path d="M103.518 15.5627H108.537L114.338 35.0159L120.12 15.5627H124.553L116.467 44.0002H112.19L103.518 15.5627ZM101.487 15.5627H106.272L107.014 34.3127V44.0002H101.487V15.5627ZM122.366 15.5627H127.17V44.0002H121.662V34.3127L122.366 15.5627ZM128.54 34.1565V32.7307C128.54 31.0771 128.735 29.6122 129.126 28.3362C129.529 27.0601 130.102 25.9924 130.845 25.1331C131.587 24.2607 132.479 23.6031 133.52 23.1604C134.575 22.7047 135.753 22.4768 137.055 22.4768C138.371 22.4768 139.549 22.7047 140.591 23.1604C141.645 23.6031 142.544 24.2607 143.286 25.1331C144.041 25.9924 144.621 27.0601 145.024 28.3362C145.428 29.6122 145.63 31.0771 145.63 32.7307V34.1565C145.63 35.7971 145.428 37.2555 145.024 38.5315C144.621 39.8075 144.041 40.8818 143.286 41.7542C142.544 42.6265 141.652 43.2841 140.61 43.7268C139.568 44.1695 138.397 44.3909 137.095 44.3909C135.792 44.3909 134.614 44.1695 133.559 43.7268C132.518 43.2841 131.619 42.6265 130.864 41.7542C130.109 40.8818 129.529 39.8075 129.126 38.5315C128.735 37.2555 128.54 35.7971 128.54 34.1565ZM134.009 32.7307V34.1565C134.009 35.1331 134.074 35.9794 134.204 36.6956C134.347 37.4117 134.549 38.0042 134.809 38.4729C135.083 38.9417 135.408 39.2867 135.786 39.5081C136.164 39.7294 136.6 39.8401 137.095 39.8401C137.589 39.8401 138.032 39.7294 138.423 39.5081C138.813 39.2867 139.132 38.9417 139.38 38.4729C139.64 38.0042 139.829 37.4117 139.946 36.6956C140.076 35.9794 140.141 35.1331 140.141 34.1565V32.7307C140.141 31.7802 140.07 30.9469 139.927 30.2307C139.783 29.5015 139.582 28.9091 139.321 28.4534C139.061 27.9846 138.735 27.6331 138.345 27.3987C137.967 27.1513 137.537 27.0276 137.055 27.0276C136.574 27.0276 136.144 27.1513 135.766 27.3987C135.402 27.6331 135.083 27.9846 134.809 28.4534C134.549 28.9091 134.347 29.5015 134.204 30.2307C134.074 30.9469 134.009 31.7802 134.009 32.7307ZM152.097 34.469L157.351 22.8674H162.624V44.0002H157.214V32.4377L151.98 44.0002H146.687V22.8674H152.097V34.469ZM157.527 14.2932H161.55C161.55 15.439 161.27 16.4482 160.71 17.3206C160.163 18.1799 159.382 18.857 158.366 19.3518C157.364 19.8466 156.172 20.094 154.792 20.094C152.709 20.094 151.062 19.5536 149.851 18.4729C148.64 17.3922 148.034 15.9989 148.034 14.2932H152.019C152.019 14.9703 152.227 15.5693 152.644 16.0901C153.06 16.6109 153.777 16.8713 154.792 16.8713C155.795 16.8713 156.498 16.6109 156.902 16.0901C157.318 15.5693 157.527 14.9703 157.527 14.2932ZM187.375 15.5627V20.3088H177.141V44.0002H171.438V15.5627H187.375ZM184.604 34.1565V32.7307C184.604 31.0771 184.799 29.6122 185.19 28.3362C185.593 27.0601 186.166 25.9924 186.909 25.1331C187.651 24.2607 188.543 23.6031 189.584 23.1604C190.639 22.7047 191.817 22.4768 193.12 22.4768C194.435 22.4768 195.613 22.7047 196.655 23.1604C197.709 23.6031 198.608 24.2607 199.35 25.1331C200.105 25.9924 200.685 27.0601 201.088 28.3362C201.492 29.6122 201.694 31.0771 201.694 32.7307V34.1565C201.694 35.7971 201.492 37.2555 201.088 38.5315C200.685 39.8075 200.105 40.8818 199.35 41.7542C198.608 42.6265 197.716 43.2841 196.674 43.7268C195.633 44.1695 194.461 44.3909 193.159 44.3909C191.857 44.3909 190.678 44.1695 189.623 43.7268C188.582 43.2841 187.683 42.6265 186.928 41.7542C186.173 40.8818 185.593 39.8075 185.19 38.5315C184.799 37.2555 184.604 35.7971 184.604 34.1565ZM190.073 32.7307V34.1565C190.073 35.1331 190.138 35.9794 190.268 36.6956C190.411 37.4117 190.613 38.0042 190.873 38.4729C191.147 38.9417 191.472 39.2867 191.85 39.5081C192.228 39.7294 192.664 39.8401 193.159 39.8401C193.653 39.8401 194.096 39.7294 194.487 39.5081C194.877 39.2867 195.196 38.9417 195.444 38.4729C195.704 38.0042 195.893 37.4117 196.01 36.6956C196.14 35.9794 196.205 35.1331 196.205 34.1565V32.7307C196.205 31.7802 196.134 30.9469 195.991 30.2307C195.847 29.5015 195.646 28.9091 195.385 28.4534C195.125 27.9846 194.799 27.6331 194.409 27.3987C194.031 27.1513 193.601 27.0276 193.12 27.0276C192.638 27.0276 192.208 27.1513 191.83 27.3987C191.466 27.6331 191.147 27.9846 190.873 28.4534C190.613 28.9091 190.411 29.5015 190.268 30.2307C190.138 30.9469 190.073 31.7802 190.073 32.7307ZM208.22 26.9299V52.1252H202.77V22.8674H207.809L208.22 26.9299ZM219.196 32.7112V34.1174C219.196 35.7711 219.053 37.2359 218.766 38.512C218.48 39.775 218.05 40.8492 217.477 41.7346C216.917 42.607 216.214 43.2711 215.368 43.7268C214.522 44.1695 213.532 44.3909 212.399 44.3909C211.345 44.3909 210.433 44.1435 209.665 43.6487C208.91 43.1409 208.272 42.4443 207.751 41.5588C207.23 40.6734 206.813 39.6383 206.501 38.4534C206.188 37.2685 205.947 35.9989 205.778 34.6448V32.4573C205.934 31.012 206.162 29.6838 206.462 28.4729C206.761 27.2489 207.171 26.1877 207.692 25.2893C208.226 24.3909 208.871 23.7008 209.626 23.219C210.394 22.7242 211.305 22.4768 212.36 22.4768C213.506 22.4768 214.502 22.6851 215.348 23.1018C216.208 23.5185 216.917 24.15 217.477 24.9963C218.05 25.8297 218.48 26.8909 218.766 28.1799C219.053 29.469 219.196 30.9794 219.196 32.7112ZM213.708 34.1174V32.7112C213.708 31.6956 213.656 30.8297 213.552 30.1135C213.447 29.3974 213.278 28.8114 213.044 28.3557C212.809 27.9 212.503 27.568 212.126 27.3596C211.748 27.1513 211.286 27.0471 210.739 27.0471C210.205 27.0471 209.736 27.1513 209.333 27.3596C208.942 27.568 208.623 27.8739 208.376 28.2776C208.128 28.6682 207.94 29.15 207.809 29.7229C207.679 30.2828 207.608 30.9208 207.595 31.637V35.4651C207.621 36.3114 207.731 37.0601 207.927 37.7112C208.135 38.3622 208.467 38.8831 208.923 39.2737C209.378 39.6513 209.997 39.8401 210.778 39.8401C211.338 39.8401 211.8 39.7229 212.165 39.4885C212.542 39.2542 212.848 38.9026 213.083 38.4338C213.317 37.9651 213.48 37.3726 213.571 36.6565C213.662 35.9403 213.708 35.094 213.708 34.1174ZM219.53 34.1565V32.7307C219.53 31.0771 219.726 29.6122 220.116 28.3362C220.52 27.0601 221.093 25.9924 221.835 25.1331C222.577 24.2607 223.469 23.6031 224.511 23.1604C225.566 22.7047 226.744 22.4768 228.046 22.4768C229.361 22.4768 230.54 22.7047 231.581 23.1604C232.636 23.6031 233.534 24.2607 234.277 25.1331C235.032 25.9924 235.611 27.0601 236.015 28.3362C236.418 29.6122 236.62 31.0771 236.62 32.7307V34.1565C236.62 35.7971 236.418 37.2555 236.015 38.5315C235.611 39.8075 235.032 40.8818 234.277 41.7542C233.534 42.6265 232.642 43.2841 231.601 43.7268C230.559 44.1695 229.387 44.3909 228.085 44.3909C226.783 44.3909 225.605 44.1695 224.55 43.7268C223.508 43.2841 222.61 42.6265 221.855 41.7542C221.099 40.8818 220.52 39.8075 220.116 38.5315C219.726 37.2555 219.53 35.7971 219.53 34.1565ZM224.999 32.7307V34.1565C224.999 35.1331 225.064 35.9794 225.195 36.6956C225.338 37.4117 225.54 38.0042 225.8 38.4729C226.073 38.9417 226.399 39.2867 226.777 39.5081C227.154 39.7294 227.59 39.8401 228.085 39.8401C228.58 39.8401 229.023 39.7294 229.413 39.5081C229.804 39.2867 230.123 38.9417 230.37 38.4729C230.631 38.0042 230.82 37.4117 230.937 36.6956C231.067 35.9794 231.132 35.1331 231.132 34.1565V32.7307C231.132 31.7802 231.06 30.9469 230.917 30.2307C230.774 29.5015 230.572 28.9091 230.312 28.4534C230.051 27.9846 229.726 27.6331 229.335 27.3987C228.958 27.1513 228.528 27.0276 228.046 27.0276C227.564 27.0276 227.135 27.1513 226.757 27.3987C226.392 27.6331 226.073 27.9846 225.8 28.4534C225.54 28.9091 225.338 29.5015 225.195 30.2307C225.064 30.9469 224.999 31.7802 224.999 32.7307ZM239.494 22.8674H244.962L244.865 29.8792C244.826 32.1708 244.598 34.137 244.181 35.7776C243.765 37.4182 243.205 38.7919 242.502 39.8987C241.811 41.0055 241.011 41.8909 240.099 42.5549C239.188 43.206 238.218 43.6877 237.189 44.0002H236.212L236.154 39.5081L236.681 39.4495C237.306 38.7463 237.795 38.0627 238.146 37.3987C238.511 36.7346 238.778 36.0445 238.947 35.3284C239.116 34.5992 239.227 33.7984 239.279 32.926C239.344 32.0406 239.383 31.025 239.396 29.8792L239.494 22.8674ZM240.92 22.8674H253.224V44.0002H247.775V27.5159H240.92V22.8674ZM235.099 39.4495H255.998V50.3674H250.529V44.0002H240.724V50.3674H235.099V39.4495Z" fill="#FFF200"/>
</svg>
