<svg width="24" height="25" viewBox="0 0 24 25" fill="none" xmlns="http://www.w3.org/2000/svg">
<path fill-rule="evenodd" clip-rule="evenodd" d="M11.6574 7.35742C12.0361 7.35742 12.3431 7.66443 12.3431 8.04314L12.3431 12.8431L17.1431 12.8431C17.5218 12.8431 17.8288 13.1501 17.8288 13.5288C17.8288 13.9076 17.5218 14.2146 17.1431 14.2146L11.6574 14.2146C11.2787 14.2146 10.9717 13.9076 10.9717 13.5289L10.9717 8.04314C10.9717 7.66443 11.2787 7.35742 11.6574 7.35742Z" fill="#EBE7FF"/>
<path fill-rule="evenodd" clip-rule="evenodd" d="M12 3.25024C17.1086 3.25024 21.25 7.39161 21.25 12.5002C21.25 17.6089 17.1086 21.7502 12 21.7502C7.36362 21.7502 3.52275 18.3384 2.8534 13.8887C2.79179 13.4791 2.40979 13.197 2.00019 13.2586C1.59058 13.3202 1.30848 13.7022 1.37009 14.1118C2.1482 19.2846 6.61031 23.2502 12 23.2502C17.9371 23.2502 22.75 18.4373 22.75 12.5002C22.75 6.56318 17.9371 1.75024 12 1.75024C7.59065 1.75024 3.80298 4.40484 2.14482 8.19997C1.97898 8.57953 2.15224 9.02167 2.53181 9.18751C2.91137 9.35335 3.35351 9.18009 3.51935 8.80052C4.94742 5.53203 8.20807 3.25024 12 3.25024Z" fill="#EBE7FF"/>
<path fill-rule="evenodd" clip-rule="evenodd" d="M2 2.75C1.58579 2.75 1.25 3.08579 1.25 3.5V7.9C1.25 8.64558 1.85442 9.25 2.6 9.25H7C7.41421 9.25 7.75 8.91421 7.75 8.5C7.75 8.08579 7.41421 7.75 7 7.75H2.75V3.5C2.75 3.08579 2.41421 2.75 2 2.75Z" fill="#EBE7FF"/>
</svg>
