<svg width="240" height="53" viewBox="0 0 240 53" fill="none" xmlns="http://www.w3.org/2000/svg">
<path fill-rule="evenodd" clip-rule="evenodd" d="M37.3369 0.029297C34.0796 0.0813814 33.9252 0.0900625 33.7024 0.263677C33.1966 0.645629 33.1109 0.845286 33.068 1.84357L33.0252 2.77241L32.2965 2.83317C31.8937 2.85922 31.165 2.89394 30.6678 2.89394C29.6478 2.9113 29.262 3.04151 28.8248 3.50159L28.5677 3.77937L28.482 9.07462L24.5817 9.06594C22.4386 9.06594 19.9613 9.10066 19.0698 9.15275C17.2697 9.23955 16.8754 9.3524 16.5239 9.8472L16.3267 10.1337L16.3608 17.5518C4.63781 25.131 -1.92485 34.5472 0.501546 42.1536C4.01166 53.1572 25.0245 56.269 47.7173 49.2648C68.6511 49.2842 69.5914 49.2792 69.7006 48.9717C69.7032 48.9644 69.7053 48.9569 69.7072 48.9492C69.7091 48.9417 69.7107 48.9341 69.7124 48.9264C69.7181 48.9004 69.7242 48.8725 69.7395 48.8427C69.8595 48.6257 69.7137 48.1916 69.4737 48.0701C69.388 48.018 68.8908 47.9833 68.3679 47.9833H67.4164L67.4201 40.3937C79.6619 32.7272 86.5931 23.0475 84.11 15.2634C81.1675 6.03933 65.9259 2.36091 47.7055 5.53824C47.6905 4.69109 47.668 4.15248 47.6406 4.0832C47.5206 3.74465 47.2377 3.61444 46.3976 3.51027C45.4547 3.38874 44.3146 3.1804 44.1946 3.11096C44.1432 3.07623 44.126 2.6422 44.1432 2.01718L44.1689 0.975496L43.826 0.67167C43.2517 0.150826 42.8917 0.0379783 41.7516 0.00325535C41.1944 -0.00542538 39.2056 0.00325486 37.3369 0.029297ZM46.4405 5.76898V9.07462C46.4405 11.4879 46.4662 13.4931 46.5005 13.5278C46.5348 13.5626 46.7405 13.3976 46.9548 13.1719C47.1691 12.9462 47.4263 12.6858 47.5377 12.6077L47.7263 12.4514V8.38016C47.7263 7.26712 47.7188 6.28334 47.7055 5.53824C47.2854 5.6115 46.8637 5.68841 46.4405 5.76898ZM44.2195 6.22274C44.9638 6.06035 45.7044 5.90913 46.4405 5.76898V4.67349L45.4633 4.56932C44.9232 4.51723 44.4261 4.43911 44.3489 4.41307C44.2648 4.37901 44.2321 4.58991 44.2195 6.22274ZM43.0864 6.47787C43.0923 7.41967 43.0948 8.72036 43.0974 10.5156C43.0974 14.0834 43.1231 17.0175 43.1402 17.0435C43.166 17.0609 43.4146 16.8439 43.6974 16.5487L44.2118 16.0192V10.1857C44.2118 8.3499 44.2128 7.08709 44.2195 6.22274C43.8427 6.30492 43.465 6.38996 43.0864 6.47787ZM40.3526 7.15875C41.2684 6.91524 42.18 6.68833 43.0864 6.47787C43.0724 4.24099 43.0396 4.02854 42.9431 4.02244C42.8659 4.02244 40.62 4.03112 37.9541 4.04848C35.2882 4.06584 32.3565 4.06584 31.4308 4.04848L29.7506 4.03111L29.6906 4.46515C29.6563 4.69953 29.6392 6.01032 29.6392 7.36451C29.6563 9.88192 29.6306 10.1163 29.322 10.2292C29.2363 10.2639 26.5361 10.316 23.3216 10.342L17.4668 10.3941L17.5008 16.8306C17.1156 17.0691 16.7356 17.3095 16.3608 17.5518L16.3867 23.1911L16.3782 47.9399L15.3324 47.9833C14.1837 48.0354 14.0637 48.0875 13.9694 48.5562C13.9351 48.7385 13.9694 48.8774 14.0894 49.025L14.2609 49.242L47.7173 49.2648C48.064 49.1578 48.4111 49.0484 48.7585 48.9367C49.7073 48.6315 50.6438 48.3135 51.5672 47.9833H59.2558L59.3072 46.794C59.3252 46.4533 59.3408 45.7012 59.3515 44.7767C59.7593 44.585 60.1633 44.391 60.5636 44.1948C60.5587 46.3155 60.5587 47.9036 60.5587 47.9485C60.5673 48.0092 60.9702 48.044 61.7674 48.044L62.9675 48.0527V42.9659C63.358 42.7578 63.7445 42.5476 64.1267 42.3354C64.1207 43.1461 64.1143 43.7798 64.1076 44.1898L64.0562 47.9833H66.1306L66.1407 41.176C66.5733 40.9177 66.9998 40.6569 67.4201 40.3937L67.425 30.2659C67.4336 14.3368 67.425 12.5312 67.305 12.3489C67.0907 12.019 66.8507 11.9322 65.9934 11.8888L65.2048 11.8454L65.1448 11.585C65.1191 11.4461 65.1191 10.9687 65.1534 10.5346C65.1877 10.0659 65.1705 9.64919 65.1191 9.51898C64.9819 9.13703 64.6596 8.6438 63.5795 8.40942C62.7802 8.22617 61.4674 8.36529 61.1628 8.40145C61.124 8.40348 61.1011 8.4061 61.0983 8.40942L61.1878 8.49998C61.4632 8.77895 61.5969 8.91477 61.6728 8.99656C61.7323 9.06522 61.778 9.12147 61.8024 9.15597C61.7641 9.10185 61.7433 9.07247 61.6728 8.99656C61.6595 8.98119 61.6455 8.96519 61.6309 8.94868L61.7186 9.03757C62.0546 9.37782 62.0661 9.85495 62.006 10.2208C61.913 10.3515 61.8531 10.5265 61.8531 10.7603C61.8531 11.1662 61.2252 11.4621 60.8908 11.6197C60.7747 11.6744 60.6939 11.7124 60.6873 11.7326L60.6824 11.7469C60.6793 11.7562 60.677 11.7638 60.6751 11.7702C60.6718 11.7809 60.6695 11.7884 60.6662 11.7954C60.6587 11.8114 60.6457 11.8248 60.6033 11.8688C60.5593 11.9143 60.4837 11.9926 60.3495 12.1407C60.2853 12.3031 60.001 12.6379 59.8803 12.7799L59.8578 12.8064L60.3495 13.0607C60.3927 13.0641 60.411 13.0668 60.4294 13.0689C60.4918 13.0758 60.5549 13.0753 61.5822 13.0674L62.457 13.0607L62.9675 13.0868V42.9659C62.1825 43.3843 61.3809 43.7942 60.5636 44.1948C60.5646 43.7478 60.5658 43.2771 60.5673 42.7922L60.5759 37.74L60.3187 37.4796L60.0701 37.2192H50.778L50.2808 37.7227V47.9746L49.0293 48.0006C48.3435 48.018 47.7606 47.992 47.7349 47.9572C47.7177 47.9225 47.7092 41.5856 47.7263 33.8771C47.7365 26.4357 47.7346 26.8691 47.7314 27.6162C47.7292 28.131 47.7263 28.7941 47.7263 27.1329C47.6945 27.1007 47.6792 27.0497 47.6646 27.0016C47.6243 26.8678 47.5907 26.7563 47.2314 27.1329C46.8285 27.5583 46.4919 28.0339 46.5348 28.1641C46.5451 28.5171 46.553 28.7806 46.559 28.9795L46.5591 28.9809C46.5745 29.4951 46.577 29.5769 46.5734 29.6584C46.5727 29.6737 46.5718 29.6889 46.5708 29.707C46.5596 29.8974 46.53 30.4028 46.5348 34.5021L46.5519 47.9399L44.2375 47.992V29.7869C44.1885 29.8241 43.9813 30.1917 43.7535 30.5959C43.5028 31.0408 43.2269 31.5303 43.1101 31.6713C43.1101 31.6713 43.1101 32.2995 43.1402 34.6584C43.1488 39.6237 43.1402 44.6586 43.106 45.8565L43.0631 48.0267H42.0002L31.8444 47.9941L36.2911 47.9833L28.2568 47.9826L28.2233 47.9825L28.1684 42.063C28.1684 36.9414 28.1684 36.898 27.9884 36.6983C27.8941 36.5942 27.7055 36.464 27.5855 36.4119C27.2854 36.299 19.7334 36.4032 19.4077 36.5247C18.9363 36.7157 18.9362 36.7331 18.9191 42.1566L18.9191 42.1585C18.9136 43.9002 18.9151 44.7651 18.9169 45.8194V45.8323C18.9179 46.435 18.9191 47.1014 18.9191 48.0286L17.5354 48.0354V23.3734L17.5008 16.8306C21.6549 14.2594 26.4078 11.9204 31.6026 9.96298C31.6231 10.4798 31.6609 10.9061 31.7129 11.0115C31.9787 11.5237 32.193 11.5844 33.5559 11.5584C34.8589 11.5237 35.1846 11.4455 35.3647 11.107C35.4161 11.0028 35.4675 10.2563 35.4847 9.34479L35.4969 8.59563C35.6154 8.55698 35.7341 8.51853 35.853 8.48028C36.3772 8.3117 36.9006 8.14851 37.423 7.99069V9.32041C37.423 10.6659 37.4487 10.9263 37.5687 11.1086C37.8516 11.5253 37.9116 11.534 39.386 11.5427H40.7833L41.3662 10.9524V7.72315L41.1262 7.45405C40.9544 7.25832 40.8397 7.17837 40.3526 7.15875ZM40.3526 7.15875C39.3803 7.41729 38.4033 7.69454 37.423 7.99069V7.74051L37.6802 7.47141C37.9456 7.21129 37.9545 7.21099 38.9882 7.17639L38.9917 7.17627C39.6388 7.1568 40.062 7.14704 40.3526 7.15875ZM34.3981 8.96153C34.7625 8.83765 35.1287 8.71567 35.4969 8.59563L35.5104 7.7649L34.9532 7.20065H33.5988C32.5616 7.20933 32.1758 7.23537 32.0044 7.33954C31.8758 7.40899 31.7301 7.5392 31.6787 7.63469C31.585 7.80771 31.5657 9.03221 31.6026 9.96298C31.9352 9.83764 32.2697 9.71387 32.6059 9.5917C32.5962 9.7994 32.5832 9.98547 32.5701 10.1L32.5101 10.4993H33.3159C33.7617 10.4993 34.1646 10.4646 34.216 10.4299C34.276 10.3952 34.3446 9.93508 34.3789 9.30139L34.3981 8.96153ZM34.3981 8.96153C33.7954 9.16647 33.1979 9.3766 32.6059 9.5917C32.6153 9.39012 32.6216 9.16819 32.6216 8.97152V8.24234H34.4389L34.3981 8.96153ZM28.2568 47.9826L31.8444 47.9941L25.0785 48.0106C25.5917 48.0016 25.5851 47.9962 24.5902 48.0006L20.1106 48.0227L20.0592 46.794C20.0849 46.5683 20.1106 44.3895 20.1106 41.9502V37.5143H26.9597L27.0026 37.7748C27.0283 37.9136 27.0454 40.0925 27.0454 42.6099L27.0497 44.9016L26.9828 47.9825L28.2568 47.9826ZM61.8531 10.7603L61.8531 11.8281H63.7818L63.8076 10.8905C63.8247 10.1787 63.8076 9.9617 63.7218 9.9617C63.6654 9.95354 63.3468 9.90744 62.9973 9.8447C62.8228 9.83519 62.2754 9.84222 62.006 10.2208C61.9552 10.5304 61.8531 10.7603 61.8531 10.7603ZM61.0983 8.40942C61.1649 8.4051 61.2286 8.40115 61.2896 8.39756C61.2381 8.3985 61.195 8.39977 61.1628 8.40145C61.1211 8.4064 61.0983 8.40942 61.0983 8.40942ZM66.1407 41.176L66.1563 30.5958C66.1735 21.0383 66.182 13.2083 66.182 13.1996C66.182 13.1909 65.7277 13.1562 65.1705 13.1215L64.1676 13.0607V26.7329C64.1676 32.7708 64.151 39.0272 64.1267 42.3354C64.8117 41.9552 65.4832 41.5685 66.1407 41.176ZM59.3515 44.7767C56.8843 45.9368 54.2824 47.0124 51.5672 47.9833H51.3952V38.3303L55.3812 38.365L59.3672 38.3911V42.0023C59.3672 42.9498 59.3614 43.9348 59.3515 44.7767ZM63.0521 9.84951C63.0527 9.84987 63.043 9.84913 63.0209 9.84623C63.0404 9.84771 63.0514 9.84916 63.0521 9.84951ZM40.5258 2.71164L39.7371 2.77241C39.2999 2.79845 37.9027 2.81581 36.6255 2.79845L34.311 2.77241L34.2596 1.29668L37.3969 1.28801H40.5258V2.71164ZM42.8917 1.37481C42.8917 1.37481 42.8831 1.68732 42.8574 2.05191L42.8231 2.729H41.8116V1.2446L42.3516 1.30536L42.5296 1.32635C42.7351 1.35042 42.8849 1.36798 42.8917 1.37481ZM40.2518 10.4142V9.28568C40.2518 8.66067 40.2261 8.16587 40.1918 8.17455C40.1489 8.18323 39.7461 8.20927 39.2917 8.21795L38.4517 8.25268V10.4142H40.2518ZM50.8811 9.99016C53.9413 6.74356 55.6043 5.04214 55.8958 4.85985C56.4615 4.49526 57.0016 4.75568 57.6102 5.68452C58.0988 6.43106 59.7875 7.95019 60.8076 8.55784C61.3648 8.8877 61.5962 9.21757 61.5962 9.66029C61.5876 9.97279 61.4333 10.1811 60.5247 11.136C59.6761 12.0128 57.9359 13.9138 57.1044 14.8514C56.1701 15.9104 53.1356 19.1657 51.5669 20.8063C50.6497 21.7612 49.3381 23.1501 48.6609 23.888C48.2335 24.3425 47.6229 24.9993 47.045 25.621L47.044 25.622L47.0432 25.623L47.0423 25.6239C46.6942 25.9983 46.3576 26.3605 46.0807 26.6572C45.3435 27.4471 43.972 28.9228 43.0291 29.9471C42.5125 30.5086 41.9017 31.1709 41.3602 31.758C40.9223 32.2328 40.5295 32.6587 40.2689 32.942C39.6945 33.567 38.7087 34.6347 38.083 35.3118C37.3286 36.1452 36.8657 36.5792 36.6771 36.6487C36.2228 36.7962 35.8285 36.6226 35.1427 35.9629C34.9526 35.7754 34.4645 35.3099 33.8678 34.7407L33.8663 34.7393C33.4411 34.3337 32.9609 33.8757 32.494 33.4281C30.2138 31.2493 24.9591 25.9627 24.8219 25.7023C24.5905 25.2596 24.7877 24.9818 26.7592 22.9592C27.505 22.1953 28.4822 21.1709 28.9194 20.6848C29.7423 19.7733 30.0252 19.6084 30.4795 19.756C30.5738 19.7907 31.8853 21.0668 33.3769 22.5859L36.0857 25.3637L36.9943 24.4262C37.2548 24.1578 37.7224 23.6702 38.2578 23.1119L38.2602 23.1094C38.746 22.6029 39.2873 22.0384 39.7802 21.5268C40.8175 20.4504 43.2691 17.907 45.2235 15.8844C47.1865 13.8618 49.7239 11.2055 50.8811 9.99016ZM59.3332 8.90506C58.8874 8.54915 58.0388 7.74185 57.4559 7.12552C56.873 6.50051 56.3758 5.99702 56.3501 5.99702C56.2901 5.99702 50.804 11.6482 50.1096 12.4208C50.041 12.4989 48.3438 14.2611 46.3379 16.3358C40.0031 22.8897 39.043 23.888 37.6458 25.3724C36.4886 26.6137 36.2485 26.8308 36.0342 26.8308C35.8199 26.8308 35.4256 26.4749 33.3683 24.4175C32.0396 23.0981 30.7967 21.8307 30.6081 21.605C30.4195 21.388 30.2395 21.197 30.2138 21.197C30.1195 21.1796 27.5136 23.8967 26.9307 24.6172C26.6135 24.9991 26.3735 25.355 26.3821 25.4158C26.4421 25.6502 36.0942 35.3379 36.2828 35.3379C36.3771 35.3379 38.1258 33.5323 39.103 32.4298C39.5231 31.9524 40.886 30.4767 42.1376 29.1485C44.4092 26.7353 44.7949 26.3186 47.4437 23.4019C48.2152 22.5425 49.981 20.6675 51.344 19.2351C52.7155 17.8028 54.8586 15.5024 56.1101 14.1135C57.3616 12.7333 58.7331 11.2228 59.1617 10.7714C59.2291 10.7001 59.2925 10.6335 59.3519 10.571C59.8372 10.0604 60.0573 9.82869 60.0346 9.62478C60.0157 9.45543 59.8293 9.30522 59.488 9.03026C59.4395 8.99118 59.3879 8.94959 59.3332 8.90506ZM20.5267 16.0664C19.5237 16.1445 19.4209 16.3442 19.4209 18.3234C19.4209 20.563 19.438 20.5804 21.4182 20.5804C22.8754 20.5804 23.1669 20.5109 23.3812 20.1203C23.5355 19.8339 23.484 16.7001 23.3126 16.4397C23.0297 15.997 22.464 15.9188 20.5267 16.0664ZM22.4211 18.28V19.4519H20.4495V17.2036L21.3753 17.1689C21.8811 17.1602 22.3182 17.1341 22.3611 17.1255C22.3954 17.1168 22.4211 17.6376 22.4211 18.28ZM31.4733 17.1949C31.5847 16.5005 31.8676 16.0925 32.2705 16.0491C32.3905 16.0317 32.9648 16.0143 33.5477 15.997C34.7307 15.9709 34.9964 16.0491 35.2793 16.5265C35.4336 16.7696 35.4507 16.9692 35.4507 18.306V19.8078L35.1164 20.1724C34.7135 20.5978 34.6621 20.5804 34.3106 19.7731C34.1392 19.3911 34.1135 19.2783 34.2163 19.2783C34.3106 19.2783 34.3363 19.0786 34.3363 18.1932V17.1081H32.4505L32.5019 17.7244L32.5619 18.3321L32.2705 18.2106L32.2328 18.1945C32.0689 18.1246 31.8291 18.0225 31.6704 17.9501L31.3618 17.8199L31.4733 17.1949ZM37.963 16.1098C37.4915 16.3181 37.4486 16.4743 37.3972 18.2452C37.3458 19.7296 37.3544 19.8772 37.5086 20.1289C37.6887 20.4241 37.7744 20.4588 38.0144 20.3199C38.1601 20.2505 38.4773 19.5647 38.443 19.3997C38.4344 19.3563 38.4344 18.8268 38.443 18.2105L38.4516 17.108H40.2517V17.4987C40.2517 17.9327 40.3203 17.9761 40.5517 17.7157C40.6375 17.6115 40.8432 17.4553 40.9975 17.3598C41.4775 17.056 41.4604 16.5177 40.9546 16.1879C40.6632 15.9969 38.3659 15.9275 37.963 16.1098ZM25.5077 16.7614C25.5506 16.5964 25.6963 16.3707 25.8249 16.2666C26.0478 16.0756 26.1421 16.0669 27.4707 16.0669H28.868L29.1594 16.3621C29.408 16.6138 29.4509 16.718 29.4509 17.0565C29.4509 17.4298 29.4423 17.4471 29.1766 17.4906C28.4908 17.6121 28.3794 17.5947 28.3537 17.3864C28.3279 17.2041 28.2937 17.1954 27.3936 17.1954H26.4678L26.4849 18.2111C26.4935 18.7753 26.5278 19.2788 26.5621 19.3395C26.6392 19.4611 26.4249 20.0253 26.2192 20.251C26.0992 20.3899 26.0649 20.3899 25.842 20.2771C25.7049 20.1989 25.5592 20.0687 25.5077 19.9819C25.3963 19.7649 25.3963 17.1607 25.5077 16.7614ZM19.8838 23.1758C19.4895 23.4189 19.4209 23.7314 19.4209 25.346C19.4209 26.6394 19.438 26.813 19.5923 27.0734C19.858 27.5075 20.2009 27.6117 21.4182 27.6117C22.7211 27.6117 22.7726 27.5769 22.4211 26.9432C22.1468 26.4484 22.0096 26.3963 21.0839 26.3963H20.5352V24.1394H21.2039C21.5639 24.1394 22.0096 24.1133 22.1897 24.0873C22.4725 24.0352 22.5068 24.0526 22.5068 24.2175C22.5068 24.313 22.5411 24.3998 22.584 24.3998C22.704 24.3998 23.4498 23.6272 23.4498 23.497C23.4498 23.4275 23.3212 23.2886 23.1583 23.1932C22.9011 23.0282 22.7383 23.0109 21.5125 23.0109C20.3209 23.0109 20.1152 23.0369 19.8838 23.1758ZM50.5894 24.4092C50.8551 24.1574 51.2151 23.8797 51.3866 23.7842C51.6094 23.6626 51.798 23.6279 52.0723 23.6626C52.2781 23.6887 52.7752 23.706 53.1696 23.706C53.881 23.706 53.9068 23.7147 54.1811 23.9925L54.4554 24.2703L54.4982 25.9196L54.499 25.9479C54.5335 27.1911 54.5504 27.8001 54.2581 28.0985C53.9773 28.385 53.4114 28.385 52.3021 28.385H52.2781C51.5151 28.3936 50.7951 28.3589 50.6751 28.3068C50.5551 28.2634 50.3751 28.0985 50.2808 27.9422C50.1265 27.6905 50.1093 27.4995 50.1093 26.2582V24.8519L50.5894 24.4092ZM53.3839 27.1436C53.4181 27.0915 53.4524 26.5533 53.4524 25.937V24.8345H51.1123L51.1723 25.2339C51.198 25.4596 51.2237 26.0064 51.2237 26.4492V27.2651L52.2781 27.2478C52.9124 27.2391 53.3496 27.1957 53.3839 27.1436ZM56.7699 23.9747C56.4099 24.2525 56.3499 24.6344 56.3842 26.3359L56.4099 27.8897L56.6928 28.1414L56.9671 28.3932H58.5186C60.1473 28.3932 60.4559 28.3324 60.6531 27.9678C60.7045 27.8637 60.7388 27.1084 60.7388 26.1362L60.7389 25.9257C60.7399 24.836 60.7404 24.3045 60.4782 24.0446C60.2286 23.797 59.741 23.7957 58.7889 23.793L58.5872 23.7924C57.1042 23.7924 56.9757 23.8011 56.7699 23.9747ZM59.6244 27.2907L59.2301 27.23C59.0072 27.2039 58.5272 27.1779 58.1586 27.1779H57.4814V24.8341H59.6244V27.2907ZM56.1444 19.7471C56.1101 18.0457 56.1701 17.6638 56.5301 17.386C56.7359 17.2124 56.8644 17.2037 58.3474 17.2037L58.5491 17.2043C59.5012 17.207 59.9888 17.2083 60.2384 17.4558C60.5006 17.7158 60.5001 18.2473 60.4991 19.337L60.499 19.5475C60.499 20.5197 60.4647 21.2749 60.4133 21.3791C60.2161 21.7437 59.9075 21.8045 58.2788 21.8045H56.7273L56.453 21.5527L56.1701 21.301L56.1444 19.7471ZM59.3846 20.702V18.2454H57.2416V20.5892H57.9188C58.2874 20.5892 58.7675 20.6152 58.9903 20.6412L59.3846 20.702ZM19.9181 30.0083C19.4809 30.2427 19.4209 30.4945 19.4209 32.1351C19.4209 33.5067 19.438 33.6456 19.6095 33.9233C19.8838 34.3921 20.1324 34.4442 21.6753 34.3834C22.7394 34.3495 22.9727 34.3421 23.1218 34.2248C23.1637 34.1919 23.1989 34.1503 23.244 34.097C23.4498 33.8539 23.4498 33.8279 23.4498 32.1438L23.4493 32.003C23.4456 30.8936 23.4438 30.3608 23.1801 30.1051C22.9365 29.8689 22.4693 29.8691 21.5706 29.8694L21.461 29.8694C20.4667 29.8781 20.0895 29.9042 19.9181 30.0083ZM22.4211 33.2462L20.5352 33.2115V31.0066L21.2467 30.9719C21.6325 30.9632 22.0525 30.9372 22.1897 30.9285L22.4211 30.9111V33.2462ZM25.4565 33.4709C25.3793 32.924 25.4822 30.5976 25.5936 30.3806C25.7137 30.1549 25.7565 30.1636 26.1765 30.5716L26.5366 30.9275V33.1671H27.068C27.3595 33.1671 27.8138 33.1237 28.071 33.0716C28.4739 32.9848 28.6024 32.9935 28.8768 33.1063C29.2882 33.2886 29.3054 33.5924 28.9282 34.0612L28.671 34.3824H26.0394L25.7822 34.1393C25.5936 33.957 25.5079 33.7747 25.4565 33.4709ZM50.1093 30.7199V32.43C50.1093 34.279 50.1608 34.522 50.5808 34.713C50.7265 34.7824 51.3266 34.8172 52.3381 34.8172H53.8725L54.1725 34.522L54.4811 34.2355V30.8327L54.2154 30.5202L53.9496 30.2164H50.6408L50.1093 30.7199ZM53.4524 33.6887H51.138V31.2581H53.4524V33.6887ZM56.4428 30.7971L56.9999 30.2155H60.2916L60.7374 30.7537V34.2607L60.2145 34.7728L58.6286 34.7989C56.8628 34.8336 56.7513 34.7989 56.4856 34.278C56.357 34.035 56.3485 33.7832 56.3913 32.3943L56.4428 30.7971ZM59.7173 33.6009L59.6659 31.3006L57.48 31.2485V33.6009H59.7173ZM32.066 37.1434C31.5602 37.4646 31.5517 37.4819 31.526 39.2875L31.5002 40.9629L31.766 41.2754L32.0403 41.5879H33.4718C35.0405 41.5879 35.1605 41.5532 35.4177 41.0584C35.5206 40.8414 35.5377 40.6417 35.4863 40.0254L35.4348 39.2615L35.1091 39.166C34.5262 38.9924 34.449 39.0271 34.389 39.4698C34.3633 39.6955 34.3376 39.9906 34.3376 40.1209V40.3726H33.549C33.1118 40.3726 32.7003 40.3379 32.6403 40.3032C32.5632 40.2424 32.5375 39.9299 32.5546 39.0184C32.5803 37.8378 32.5889 37.8118 32.7775 37.7857C32.8804 37.7684 32.9661 37.751 32.9661 37.7423C32.9661 37.7386 32.9548 37.7053 32.937 37.6533C32.914 37.5855 32.88 37.4858 32.8461 37.3777C32.7003 36.9698 32.4603 36.8916 32.066 37.1434ZM40.0972 37.9417C40.0286 37.9417 40.0458 37.5164 40.1229 37.2646C40.2001 37.0216 40.8944 37.2125 41.2116 37.5685C41.3487 37.716 41.3573 37.8983 41.3059 39.4174C41.2647 40.7568 41.2565 41.0254 41.1322 41.2168C41.101 41.2648 41.0626 41.308 41.0144 41.3619L40.783 41.631H39.4629C37.4913 41.631 37.337 41.5355 37.337 40.2421C37.337 39.4695 37.337 39.4609 37.577 39.3567C37.9456 39.1917 38.2285 39.1831 38.2542 39.3306C38.2628 39.4001 38.2971 39.6866 38.3228 39.9556L38.3742 40.4418L40.1658 40.4591V39.2004C40.1658 38.506 40.1315 37.9417 40.0972 37.9417Z" fill="url(#paint0_linear_339_7543)"/>
<path d="M95.1094 10.7921H99.4473L101.488 32.4759L110.976 10.7921H115.591L102.161 39.998H98.5559L95.1094 10.7921ZM92.8116 10.7921H97.1694L94.4359 31.4729L92.9899 39.998H87.82L92.8116 10.7921ZM113.372 10.7921H117.75L112.738 39.998H107.569L109.133 31.0115L113.372 10.7921Z" fill="url(#paint1_linear_339_7543)"/>
<path d="M116.009 29.9484L116.207 28.3838C116.366 27.0332 116.683 25.7227 117.158 24.4523C117.633 23.1819 118.274 22.0452 119.079 21.0422C119.885 20.0393 120.855 19.257 121.991 18.6953C123.14 18.1203 124.467 17.8529 125.973 17.893C127.399 17.9197 128.594 18.2407 129.558 18.8558C130.522 19.4709 131.261 20.28 131.776 21.2829C132.304 22.2859 132.648 23.4025 132.806 24.6328C132.978 25.8631 132.998 27.1067 132.866 28.3638L132.687 29.9484C132.529 31.2991 132.205 32.6096 131.717 33.88C131.241 35.1504 130.601 36.2871 129.795 37.29C128.99 38.2796 128.019 39.0552 126.884 39.6168C125.748 40.1785 124.434 40.4393 122.942 40.3991C121.489 40.3724 120.288 40.0515 119.337 39.4363C118.386 38.8212 117.647 38.0121 117.118 37.0092C116.59 36.0062 116.24 34.8963 116.069 33.6794C115.91 32.4491 115.89 31.2054 116.009 29.9484ZM121.179 28.3638L121.021 29.9885C120.968 30.4833 120.928 31.0717 120.902 31.7537C120.875 32.4224 120.921 33.0843 121.04 33.7396C121.159 34.3948 121.397 34.9498 121.753 35.4045C122.11 35.8458 122.645 36.0865 123.358 36.1266C124.163 36.1801 124.83 36.0062 125.358 35.6051C125.887 35.2039 126.316 34.6823 126.646 34.0405C126.976 33.3852 127.22 32.6965 127.379 31.9744C127.551 31.2389 127.676 30.5569 127.755 29.9284L127.914 28.3236C127.953 27.8422 127.98 27.2605 127.993 26.5785C128.019 25.8965 127.973 25.2279 127.854 24.5726C127.735 23.9174 127.498 23.3624 127.141 22.9077C126.785 22.453 126.25 22.2057 125.537 22.1655C124.758 22.1254 124.104 22.3059 123.576 22.7071C123.061 23.1083 122.638 23.6365 122.308 24.2918C121.978 24.947 121.72 25.6357 121.536 26.3579C121.364 27.08 121.245 27.7486 121.179 28.3638Z" fill="url(#paint2_linear_339_7543)"/>
<path d="M138.494 31.8941L146.199 18.2942H151.27L147.546 39.998H142.574L144.931 26.3579L137.226 39.998H132.135L135.859 18.2942H140.831L138.494 31.8941ZM147.704 9.72897L151.408 9.66879C151.316 10.9392 150.953 12.0157 150.319 12.8983C149.698 13.7809 148.88 14.4428 147.863 14.8841C146.859 15.3254 145.756 15.5327 144.555 15.506C142.798 15.4792 141.359 14.951 140.237 13.9213C139.114 12.8916 138.56 11.4808 138.573 9.68885H142.277C142.237 10.4912 142.396 11.1465 142.752 11.6546C143.122 12.1628 143.743 12.4236 144.614 12.4369C145.473 12.4503 146.159 12.2029 146.674 11.6947C147.202 11.1866 147.546 10.5313 147.704 9.72897Z" fill="url(#paint3_linear_339_7543)"/>
<path d="M177.084 10.7921L176.312 15.2853H166.071L161.812 39.998H156.642L161.634 10.7921H177.084Z" fill="url(#paint4_linear_339_7543)"/>
<path d="M170.966 29.9484L171.164 28.3838C171.322 27.0332 171.639 25.7227 172.115 24.4523C172.59 23.1819 173.231 22.0452 174.036 21.0422C174.842 20.0393 175.812 19.257 176.948 18.6953C178.097 18.1203 179.424 17.8529 180.929 17.893C182.355 17.9197 183.551 18.2407 184.515 18.8558C185.479 19.4709 186.218 20.28 186.733 21.2829C187.261 22.2859 187.605 23.4025 187.763 24.6328C187.935 25.8631 187.955 27.1067 187.822 28.3638L187.644 29.9484C187.486 31.2991 187.162 32.6096 186.674 33.88C186.198 35.1504 185.558 36.2871 184.752 37.29C183.947 38.2796 182.976 39.0552 181.84 39.6168C180.705 40.1785 179.391 40.4393 177.899 40.3991C176.446 40.3724 175.244 40.0515 174.294 39.4363C173.343 38.8212 172.603 38.0121 172.075 37.0092C171.547 36.0062 171.197 34.8963 171.025 33.6794C170.867 32.4491 170.847 31.2054 170.966 29.9484ZM176.136 28.3638L175.977 29.9885C175.924 30.4833 175.885 31.0717 175.858 31.7537C175.832 32.4224 175.878 33.0843 175.997 33.7396C176.116 34.3948 176.354 34.9498 176.71 35.4045C177.067 35.8458 177.602 36.0865 178.315 36.1266C179.12 36.1801 179.787 36.0062 180.315 35.6051C180.843 35.2039 181.273 34.6823 181.603 34.0405C181.933 33.3852 182.177 32.6965 182.336 31.9744C182.507 31.2389 182.633 30.5569 182.712 29.9284L182.87 28.3236C182.91 27.8422 182.937 27.2605 182.95 26.5785C182.976 25.8965 182.93 25.2279 182.811 24.5726C182.692 23.9174 182.455 23.3624 182.098 22.9077C181.741 22.453 181.207 22.2057 180.494 22.1655C179.714 22.1254 179.061 22.3059 178.533 22.7071C178.018 23.1083 177.595 23.6365 177.265 24.2918C176.935 24.947 176.677 25.6357 176.492 26.3579C176.321 27.08 176.202 27.7486 176.136 28.3638Z" fill="url(#paint5_linear_339_7543)"/>
<path d="M194.936 22.7472L190.539 48.3425H185.606L190.756 18.2942H195.292L194.936 22.7472ZM204.919 28.3437L204.741 29.9083C204.596 31.0717 204.351 32.2753 204.008 33.5189C203.678 34.7626 203.202 35.9193 202.582 36.9891C201.974 38.0456 201.182 38.8947 200.205 39.5366C199.228 40.1651 198.033 40.4526 196.62 40.3991C195.431 40.359 194.474 40.0047 193.747 39.336C193.021 38.6674 192.473 37.8249 192.103 36.8086C191.747 35.7923 191.516 34.7225 191.41 33.5992C191.304 32.4759 191.285 31.4462 191.351 30.5101L191.648 28.0829C191.833 27.0265 192.103 25.9099 192.46 24.7331C192.83 23.5429 193.325 22.4263 193.946 21.3832C194.579 20.3268 195.352 19.4709 196.263 18.8157C197.174 18.1471 198.264 17.8328 199.531 17.8729C200.931 17.8997 202.021 18.254 202.8 18.936C203.592 19.6047 204.16 20.4672 204.503 21.5236C204.846 22.5667 205.031 23.6967 205.058 24.9136C205.084 26.1172 205.038 27.2605 204.919 28.3437ZM199.769 29.9284L199.928 28.3036C199.98 27.7954 200.033 27.2003 200.086 26.5183C200.139 25.8363 200.119 25.1677 200.027 24.5124C199.934 23.8572 199.71 23.3156 199.353 22.8877C198.997 22.4464 198.449 22.2123 197.709 22.1856C197.036 22.1588 196.455 22.2926 195.966 22.5868C195.477 22.881 195.061 23.2688 194.718 23.7502C194.388 24.2316 194.117 24.7665 193.906 25.3549C193.695 25.9299 193.543 26.4983 193.45 27.0599L192.816 31.5331C192.777 32.2017 192.81 32.8837 192.915 33.5791C193.034 34.2745 193.292 34.8629 193.688 35.3443C194.097 35.8257 194.705 36.0865 195.51 36.1266C196.316 36.1667 196.983 35.9929 197.511 35.6051C198.039 35.2039 198.455 34.6823 198.759 34.0405C199.063 33.3986 199.287 32.7099 199.432 31.9744C199.591 31.2389 199.703 30.5569 199.769 29.9284Z" fill="url(#paint6_linear_339_7543)"/>
<path d="M205.199 29.9484L205.397 28.3838C205.555 27.0332 205.872 25.7227 206.348 24.4523C206.823 23.1819 207.464 22.0452 208.269 21.0422C209.075 20.0393 210.045 19.257 211.181 18.6953C212.33 18.1203 213.657 17.8529 215.162 17.893C216.588 17.9197 217.783 18.2407 218.747 18.8558C219.711 19.4709 220.451 20.28 220.966 21.2829C221.494 22.2859 221.837 23.4025 221.996 24.6328C222.168 25.8631 222.187 27.1067 222.055 28.3638L221.877 29.9484C221.719 31.2991 221.395 32.6096 220.907 33.88C220.431 35.1504 219.791 36.2871 218.985 37.29C218.18 38.2796 217.209 39.0552 216.073 39.6168C214.938 40.1785 213.624 40.4393 212.132 40.3991C210.679 40.3724 209.477 40.0515 208.527 39.4363C207.576 38.8212 206.836 38.0121 206.308 37.0092C205.78 36.0062 205.43 34.8963 205.258 33.6794C205.1 32.4491 205.08 31.2054 205.199 29.9484ZM210.369 28.3638L210.21 29.9885C210.157 30.4833 210.118 31.0717 210.091 31.7537C210.065 32.4224 210.111 33.0843 210.23 33.7396C210.349 34.3948 210.587 34.9498 210.943 35.4045C211.3 35.8458 211.834 36.0865 212.548 36.1266C213.353 36.1801 214.02 36.0062 214.548 35.6051C215.076 35.2039 215.506 34.6823 215.836 34.0405C216.166 33.3852 216.41 32.6965 216.569 31.9744C216.74 31.2389 216.866 30.5569 216.945 29.9284L217.103 28.3236C217.143 27.8422 217.169 27.2605 217.183 26.5785C217.209 25.8965 217.163 25.2279 217.044 24.5726C216.925 23.9174 216.687 23.3624 216.331 22.9077C215.974 22.453 215.44 22.2057 214.726 22.1655C213.947 22.1254 213.294 22.3059 212.765 22.7071C212.25 23.1083 211.828 23.6365 211.498 24.2918C211.168 24.947 210.91 25.6357 210.725 26.3579C210.554 27.08 210.435 27.7486 210.369 28.3638Z" fill="url(#paint7_linear_339_7543)"/>
<path d="M226.713 18.2942H231.704L230.298 25.6759C230.06 27.0265 229.723 28.4641 229.288 29.9885C228.865 31.4996 228.297 32.9573 227.584 34.3614C226.884 35.7655 226 36.9757 224.93 37.9921C223.86 38.995 222.553 39.6636 221.008 39.998H219.72L220.216 35.7655L220.77 35.7455C221.47 34.9966 222.071 34.2477 222.573 33.4989C223.075 32.7366 223.497 31.9476 223.84 31.1319C224.197 30.3028 224.488 29.4469 224.712 28.5643C224.95 27.6684 225.161 26.7122 225.346 25.6959L226.713 18.2942ZM227.98 18.2942H239.825L236.102 39.998H231.15L234.121 22.7673H227.228L227.98 18.2942ZM219.364 35.7053H239.509L237.647 46.4971H232.675L233.804 39.998H223.682L222.573 46.4971H217.502L219.364 35.7053Z" fill="url(#paint8_linear_339_7543)"/>
<defs>
<linearGradient id="paint0_linear_339_7543" x1="233.303" y1="1.67721" x2="224.321" y2="77.6289" gradientUnits="userSpaceOnUse">
<stop stop-color="#FFF200"/>
<stop offset="0.464" stop-color="#E7B510"/>
<stop offset="0.924" stop-color="#FFF200"/>
</linearGradient>
<linearGradient id="paint1_linear_339_7543" x1="233.303" y1="1.67721" x2="224.321" y2="77.6289" gradientUnits="userSpaceOnUse">
<stop stop-color="#FFF200"/>
<stop offset="0.464" stop-color="#E7B510"/>
<stop offset="0.924" stop-color="#FFF200"/>
</linearGradient>
<linearGradient id="paint2_linear_339_7543" x1="233.303" y1="1.67721" x2="224.321" y2="77.6289" gradientUnits="userSpaceOnUse">
<stop stop-color="#FFF200"/>
<stop offset="0.464" stop-color="#E7B510"/>
<stop offset="0.924" stop-color="#FFF200"/>
</linearGradient>
<linearGradient id="paint3_linear_339_7543" x1="233.303" y1="1.67721" x2="224.321" y2="77.6289" gradientUnits="userSpaceOnUse">
<stop stop-color="#FFF200"/>
<stop offset="0.464" stop-color="#E7B510"/>
<stop offset="0.924" stop-color="#FFF200"/>
</linearGradient>
<linearGradient id="paint4_linear_339_7543" x1="233.303" y1="1.67721" x2="224.321" y2="77.6289" gradientUnits="userSpaceOnUse">
<stop stop-color="#FFF200"/>
<stop offset="0.464" stop-color="#E7B510"/>
<stop offset="0.924" stop-color="#FFF200"/>
</linearGradient>
<linearGradient id="paint5_linear_339_7543" x1="233.303" y1="1.67721" x2="224.321" y2="77.6289" gradientUnits="userSpaceOnUse">
<stop stop-color="#FFF200"/>
<stop offset="0.464" stop-color="#E7B510"/>
<stop offset="0.924" stop-color="#FFF200"/>
</linearGradient>
<linearGradient id="paint6_linear_339_7543" x1="233.303" y1="1.67721" x2="224.321" y2="77.6289" gradientUnits="userSpaceOnUse">
<stop stop-color="#FFF200"/>
<stop offset="0.464" stop-color="#E7B510"/>
<stop offset="0.924" stop-color="#FFF200"/>
</linearGradient>
<linearGradient id="paint7_linear_339_7543" x1="233.303" y1="1.67721" x2="224.321" y2="77.6289" gradientUnits="userSpaceOnUse">
<stop stop-color="#FFF200"/>
<stop offset="0.464" stop-color="#E7B510"/>
<stop offset="0.924" stop-color="#FFF200"/>
</linearGradient>
<linearGradient id="paint8_linear_339_7543" x1="233.303" y1="1.67721" x2="224.321" y2="77.6289" gradientUnits="userSpaceOnUse">
<stop stop-color="#FFF200"/>
<stop offset="0.464" stop-color="#E7B510"/>
<stop offset="0.924" stop-color="#FFF200"/>
</linearGradient>
</defs>
</svg>
