<svg width="181" height="40" viewBox="0 0 181 40" fill="none" xmlns="http://www.w3.org/2000/svg">
<path fill-rule="evenodd" clip-rule="evenodd" d="M28.1785 0.022111C25.72 0.0614199 25.6036 0.0679717 25.4354 0.199002C25.0537 0.487267 24.989 0.637952 24.9566 1.39137L24.9243 2.09238L24.3744 2.13824C24.0703 2.1579 23.5204 2.18411 23.1452 2.18411C22.3753 2.19721 22.0842 2.29548 21.7542 2.64271L21.5602 2.85236L21.4955 6.84877L18.5518 6.84222C16.9345 6.84222 15.0648 6.86842 14.3919 6.90773C13.0333 6.97325 12.7357 7.05841 12.4705 7.43185L12.3217 7.64805L12.3474 13.2466C3.49987 18.9668 -1.45309 26.0734 0.378157 31.814C3.0273 40.1186 18.8861 42.4671 36.0127 37.181C51.8118 37.1956 52.5214 37.1919 52.6038 36.9598C52.6058 36.9542 52.6074 36.9486 52.6089 36.9428C52.6103 36.9372 52.6115 36.9314 52.6128 36.9256C52.6171 36.906 52.6216 36.8849 52.6332 36.8624C52.7238 36.6986 52.6138 36.371 52.4326 36.2793C52.3679 36.24 51.9927 36.2138 51.5981 36.2138H50.8799L50.8827 30.4858C60.1219 24.6998 65.3529 17.3944 63.4789 11.5195C61.2581 4.55798 49.755 1.78182 36.0038 4.1798C35.9924 3.54045 35.9754 3.13394 35.9548 3.08166C35.8642 2.82615 35.6507 2.72788 35.0167 2.64926C34.3051 2.55754 33.4446 2.4003 33.3541 2.34789C33.3152 2.32169 33.3023 1.99411 33.3152 1.5224L33.3346 0.736223L33.0759 0.506921C32.6424 0.113831 32.3707 0.0286628 31.5102 0.00245687C31.0897 -0.00409462 29.5888 0.0024565 28.1785 0.022111ZM35.0491 4.35395V6.84877C35.0491 8.67008 35.0685 10.1835 35.0944 10.2097C35.1202 10.2359 35.2755 10.1114 35.4372 9.94107C35.599 9.77073 35.7931 9.57418 35.8772 9.51522L36.0195 9.3973V6.32465C36.0195 5.48462 36.0138 4.74214 36.0038 4.1798C35.6867 4.2351 35.3685 4.29314 35.0491 4.35395ZM33.3728 4.69641C33.9346 4.57385 34.4935 4.45972 35.0491 4.35395V3.52716L34.3115 3.44854C33.904 3.40923 33.5287 3.35027 33.4705 3.33062C33.4071 3.30491 33.3823 3.46408 33.3728 4.69641ZM32.5177 4.88896C32.5221 5.59975 32.524 6.5814 32.526 7.93631C32.526 10.629 32.5454 12.8434 32.5583 12.863C32.5777 12.8761 32.7653 12.7124 32.9788 12.4896L33.367 12.09V7.68736C33.367 6.30181 33.3678 5.34875 33.3728 4.69641C33.0885 4.75843 32.8034 4.82261 32.5177 4.88896ZM30.4544 5.40283C31.1456 5.21905 31.8336 5.04779 32.5177 4.88896C32.5071 3.20075 32.4823 3.04041 32.4095 3.0358C32.3513 3.0358 30.6563 3.04235 28.6443 3.05545C26.6322 3.06856 24.4197 3.06856 23.721 3.05545L22.4529 3.04235L22.4077 3.36992C22.3818 3.54681 22.3688 4.53609 22.3688 5.55812C22.3818 7.45805 22.3624 7.63494 22.1295 7.72011C22.0648 7.74632 20.0269 7.78563 17.6008 7.80528L13.1821 7.8446L13.2078 12.7024C12.9171 12.8823 12.6303 13.0638 12.3474 13.2466L12.367 17.5027L12.3605 36.181L11.5712 36.2138C10.7043 36.2531 10.6137 36.2924 10.5426 36.6462C10.5167 36.7838 10.5426 36.8886 10.6332 37L10.7625 37.1638L36.0127 37.181C36.2743 37.1002 36.5363 37.0177 36.7985 36.9333C37.5146 36.703 38.2214 36.463 38.9183 36.2138H44.721L44.7598 35.3162C44.7733 35.0591 44.7851 34.4915 44.7933 33.7938C45.101 33.6491 45.4059 33.5027 45.708 33.3546C45.7043 34.9551 45.7043 36.1537 45.7043 36.1875C45.7108 36.2334 46.0149 36.2597 46.6165 36.2597L47.5223 36.2662V32.4271C47.817 32.2701 48.1087 32.1114 48.3971 31.9513C48.3926 32.5631 48.3878 33.0413 48.3827 33.3508L48.3439 36.2138H49.9095L49.9171 31.0762C50.2436 30.8813 50.5655 30.6844 50.8827 30.4858L50.8864 22.8422C50.8929 10.8202 50.8864 9.45751 50.7958 9.31992C50.6341 9.07097 50.453 9.00545 49.806 8.9727L49.2108 8.93994L49.1655 8.74339C49.1461 8.63857 49.1461 8.27824 49.172 7.95066C49.1979 7.59688 49.1849 7.28241 49.1461 7.18414C49.0426 6.89587 48.7993 6.52362 47.9841 6.34673C47.381 6.20843 46.3901 6.31343 46.1603 6.34072C46.131 6.34225 46.1136 6.34423 46.1116 6.34673L46.1791 6.41508C46.387 6.62563 46.4878 6.72813 46.5452 6.78986C46.5901 6.84168 46.6245 6.88413 46.6429 6.91016C46.614 6.86932 46.5984 6.84715 46.5452 6.78986C46.5351 6.77825 46.5245 6.76618 46.5135 6.75372L46.5797 6.8208C46.8333 7.0776 46.842 7.4377 46.7966 7.71384C46.7264 7.81247 46.6812 7.94451 46.6812 8.121C46.6812 8.42732 46.2073 8.65065 45.955 8.76955C45.8673 8.81085 45.8064 8.83957 45.8014 8.85477L45.7977 8.8656C45.7954 8.87261 45.7936 8.87831 45.7922 8.88313C45.7897 8.89127 45.788 8.89693 45.7855 8.90221C45.7797 8.91427 45.77 8.92437 45.738 8.95755C45.7048 8.99192 45.6477 9.05106 45.5464 9.1628C45.498 9.28537 45.2834 9.53801 45.1923 9.6452L45.1753 9.66523L45.5464 9.85715C45.579 9.85968 45.5928 9.86173 45.6068 9.86329C45.6538 9.86855 45.7015 9.86818 46.4768 9.86218L47.137 9.85715L47.5223 9.8768V32.4271C46.9298 32.7428 46.3248 33.0522 45.708 33.3546C45.7088 33.0172 45.7097 32.662 45.7108 32.296L45.7173 28.483L45.5232 28.2865L45.3356 28.0899H38.3226L37.9474 28.4699V36.2072L37.0029 36.2269C36.4853 36.24 36.0454 36.2204 36.026 36.1941C36.013 36.1679 36.0065 31.3853 36.0195 25.5676C36.0271 19.9515 36.0257 20.2786 36.0233 20.8424C36.0216 21.2309 36.0195 21.7314 36.0195 20.4777C35.9955 20.4534 35.9839 20.4149 35.9729 20.3785C35.9425 20.2776 35.9171 20.1935 35.646 20.4777C35.3419 20.7987 35.0879 21.1577 35.1202 21.256C35.128 21.5223 35.134 21.7212 35.1385 21.8713L35.1385 21.8724C35.1502 22.2604 35.1521 22.3222 35.1494 22.3837C35.1488 22.3952 35.1482 22.4067 35.1474 22.4204C35.139 22.5641 35.1166 22.9455 35.1202 26.0393L35.1332 36.181L33.3864 36.2204V22.4807C33.3495 22.5087 33.1931 22.7862 33.0211 23.0913C32.8319 23.427 32.6237 23.7965 32.5356 23.9029C32.5356 23.9029 32.5356 24.3769 32.5583 26.1573C32.5648 29.9047 32.5583 33.7046 32.5324 34.6087L32.5001 36.2466H31.6979L24.0332 36.222L27.3892 36.2138L21.3255 36.2133L21.3003 36.2132L21.2588 31.7457C21.2588 27.8803 21.2588 27.8475 21.1229 27.6969C21.0518 27.6182 20.9094 27.52 20.8189 27.4807C20.5924 27.3955 14.8928 27.4741 14.6469 27.5658C14.2912 27.7099 14.2911 27.7231 14.2782 31.8163L14.2782 31.8177C14.2741 33.1322 14.2752 33.785 14.2765 34.5807V34.5904C14.2773 35.0452 14.2782 35.5482 14.2782 36.248L13.2339 36.2531V17.6403L13.2078 12.7024C16.343 10.7618 19.93 8.9965 23.8506 7.51923C23.8661 7.90931 23.8947 8.23103 23.9339 8.31056C24.1345 8.6971 24.2962 8.74296 25.3249 8.7233C26.3082 8.6971 26.5541 8.63813 26.6899 8.38262C26.7288 8.30401 26.7676 7.74058 26.7805 7.05267L26.7897 6.48726C26.8792 6.45809 26.9688 6.42908 27.0585 6.40021C27.4541 6.27298 27.8491 6.14982 28.2434 6.03071V7.03427C28.2434 8.04975 28.2628 8.24629 28.3534 8.38388C28.5669 8.69835 28.6122 8.7049 29.7249 8.71145H30.7795L31.2194 8.26595V5.82879L31.0382 5.6257C30.9086 5.47798 30.8221 5.41764 30.4544 5.40283ZM30.4544 5.40283C29.7206 5.59795 28.9833 5.8072 28.2434 6.03071V5.8419L28.4375 5.6388C28.6378 5.44248 28.6445 5.44226 29.4247 5.41614L29.4273 5.41605C29.9157 5.40136 30.2351 5.39399 30.4544 5.40283ZM25.9605 6.76342C26.2354 6.66993 26.5119 6.57786 26.7897 6.48726L26.7999 5.8603L26.3794 5.43445H25.3572C24.5744 5.44101 24.2833 5.46066 24.1539 5.53928C24.0568 5.59169 23.9469 5.68996 23.908 5.76203C23.8373 5.89261 23.8228 6.81676 23.8506 7.51923C24.1017 7.42464 24.3541 7.33122 24.6079 7.23902C24.6006 7.39577 24.5907 7.53621 24.5809 7.62265L24.5356 7.92402H25.1437C25.4801 7.92402 25.7842 7.89781 25.823 7.87161C25.8683 7.8454 25.9201 7.49817 25.9459 7.01991L25.9605 6.76342ZM25.9605 6.76342C25.5056 6.91809 25.0547 7.07668 24.6079 7.23902C24.615 7.08688 24.6197 6.91939 24.6197 6.77096V6.22063H25.9912L25.9605 6.76342ZM21.3255 36.2133L24.0332 36.222L18.9268 36.2344C19.3141 36.2276 19.3092 36.2235 18.5583 36.2269L15.1774 36.2435L15.1386 35.3162C15.158 35.1459 15.1774 33.5015 15.1774 31.6605V28.3127H20.3466L20.3789 28.5092C20.3983 28.6141 20.4113 30.2585 20.4113 32.1584L20.4145 33.888L20.364 36.2132L21.3255 36.2133ZM46.6812 8.121L46.6812 8.92683H48.1369L48.1563 8.21927C48.1692 7.68205 48.1563 7.51826 48.0916 7.51826C48.049 7.5121 47.8085 7.47731 47.5448 7.42996C47.413 7.42279 46.9999 7.42809 46.7966 7.71384C46.7583 7.94747 46.6812 8.121 46.6812 8.121ZM46.1116 6.34673C46.1618 6.34347 46.2099 6.34049 46.2559 6.33778C46.217 6.33849 46.1845 6.33945 46.1603 6.34072C46.1288 6.34445 46.1116 6.34673 46.1116 6.34673ZM49.9171 31.0762L49.9289 23.0912C49.9419 15.878 49.9483 9.96852 49.9483 9.96197C49.9483 9.95542 49.6054 9.92921 49.1849 9.90301L48.428 9.85715V20.1757C48.428 24.7327 48.4155 29.4545 48.3971 31.9513C48.9141 31.6643 49.4209 31.3725 49.9171 31.0762ZM44.7933 33.7938C42.9312 34.6693 40.9675 35.4811 38.9183 36.2138H38.7884V28.9285L41.7968 28.9547L44.8051 28.9744V31.6998C44.8051 32.4149 44.8007 33.1583 44.7933 33.7938ZM47.5861 7.4336C47.5866 7.43386 47.5792 7.4333 47.5626 7.43111C47.5773 7.43223 47.5856 7.43333 47.5861 7.4336ZM30.5851 2.04652L29.9899 2.09238C29.66 2.11204 28.6054 2.12514 27.6415 2.11204L25.8947 2.09238L25.8559 0.97863L28.2237 0.97208H30.5851V2.04652ZM32.3707 1.03759C32.3707 1.03759 32.3642 1.27345 32.3448 1.54861L32.3189 2.05962H31.5555V0.939322L31.9631 0.98518L32.0975 1.00102C32.2525 1.01919 32.3656 1.03244 32.3707 1.03759ZM30.3784 7.85976V7.00806C30.3784 6.53636 30.3589 6.16292 30.3331 6.16947C30.3007 6.17602 29.9967 6.19568 29.6538 6.20223L29.0198 6.22844V7.85976H30.3784ZM38.4005 7.53974C40.7101 5.08948 41.9652 3.80539 42.1851 3.66781C42.6121 3.39265 43.0197 3.58919 43.479 4.2902C43.8478 4.85363 45.1223 6.00014 45.8922 6.45874C46.3127 6.7077 46.4873 6.95666 46.4873 7.29078C46.4809 7.52664 46.3644 7.68387 45.6787 8.40454C45.0382 9.06624 43.7249 10.501 43.0973 11.2086C42.3921 12.0079 40.1019 14.4647 38.918 15.7029C38.2258 16.4236 37.236 17.4718 36.7249 18.0287C36.4023 18.3717 35.9415 18.8674 35.5053 19.3366L35.5046 19.3374L35.5039 19.3381L35.5033 19.3388C35.2406 19.6214 34.9865 19.8947 34.7775 20.1186C34.2212 20.7148 33.186 21.8285 32.4744 22.6016C32.0846 23.0254 31.6235 23.5252 31.2148 23.9683C30.8844 24.3267 30.5879 24.6481 30.3912 24.8619C29.9578 25.3336 29.2138 26.1394 28.7415 26.6504C28.1722 27.2794 27.8228 27.607 27.6805 27.6594C27.3376 27.7707 27.04 27.6397 26.5225 27.1418C26.3789 27.0003 26.0106 26.649 25.5602 26.2194L25.5591 26.2183C25.2382 25.9123 24.8758 25.5665 24.5234 25.2288C22.8025 23.5843 18.8367 19.5945 18.7332 19.3979C18.5585 19.0638 18.7073 18.8542 20.1953 17.3277C20.7581 16.7511 21.4957 15.9781 21.8256 15.6112C22.4467 14.9233 22.6602 14.7988 23.003 14.9102C23.0742 14.9364 24.064 15.8994 25.1897 17.046L27.2341 19.1424L27.9199 18.4349C28.1165 18.2323 28.4694 17.8643 28.8735 17.443L28.8753 17.4411C29.2419 17.0588 29.6504 16.6327 30.0225 16.2467C30.8053 15.4343 32.6555 13.5147 34.1306 11.9882C35.6121 10.4617 37.5271 8.45695 38.4005 7.53974ZM44.7794 6.7208C44.443 6.45219 43.8025 5.8429 43.3626 5.37775C42.9226 4.90604 42.5474 4.52605 42.528 4.52605C42.4827 4.52605 38.3422 8.79108 37.8182 9.37416C37.7665 9.43312 36.4855 10.7631 34.9716 12.3289C30.1907 17.2753 29.4661 18.0287 28.4116 19.149C27.5382 20.0858 27.357 20.2496 27.1953 20.2496C27.0335 20.2496 26.736 19.981 25.1833 18.4283C24.1805 17.4325 23.2424 16.476 23.1001 16.3056C22.9578 16.1418 22.8219 15.9977 22.8025 15.9977C22.7313 15.9846 20.7646 18.0352 20.3247 18.579C20.0853 18.8673 19.9042 19.1359 19.9106 19.1817C19.9559 19.3586 27.2406 26.6701 27.3829 26.6701C27.4541 26.6701 28.7738 25.3074 29.5114 24.4753C29.8284 24.115 30.857 23.0013 31.8016 21.9989C33.516 20.1776 33.8071 19.8631 35.8062 17.6618C36.3884 17.0132 37.7212 15.5981 38.7498 14.5171C39.7849 13.4361 41.4023 11.6999 42.3469 10.6517C43.2914 9.61001 44.3265 8.47005 44.65 8.12937C44.7008 8.07556 44.7487 8.02525 44.7935 7.9781C45.1597 7.59273 45.3259 7.41788 45.3088 7.26399C45.2945 7.13617 45.1538 7.02281 44.8963 6.81529C44.8596 6.7858 44.8207 6.75441 44.7794 6.7208ZM15.4915 12.1256C14.7345 12.1846 14.6569 12.3352 14.6569 13.829C14.6569 15.5193 14.6698 15.5324 16.1643 15.5324C17.2641 15.5324 17.4841 15.48 17.6458 15.1851C17.7623 14.9689 17.7234 12.6039 17.594 12.4073C17.3806 12.0732 16.9536 12.0142 15.4915 12.1256ZM16.9212 13.7962V14.6807H15.4332V12.9838L16.1319 12.9576C16.5136 12.9511 16.8436 12.9314 16.8759 12.9249C16.9018 12.9183 16.9212 13.3114 16.9212 13.7962ZM23.753 12.9773C23.8371 12.4532 24.0506 12.1452 24.3547 12.1125C24.4453 12.0994 24.8787 12.0863 25.3187 12.0732C26.2114 12.0535 26.412 12.1125 26.6255 12.4728C26.7419 12.6563 26.7549 12.8069 26.7549 13.8159V14.9493L26.5026 15.2245C26.1985 15.5455 26.1597 15.5324 25.8944 14.9231C25.7651 14.6348 25.7456 14.5496 25.8233 14.5496C25.8944 14.5496 25.9138 14.399 25.9138 13.7307V12.9118H24.4906L24.5294 13.3769L24.5747 13.8355L24.3547 13.7438L24.3263 13.7317C24.2026 13.679 24.0216 13.6019 23.9018 13.5473L23.6689 13.449L23.753 12.9773ZM28.6509 12.1583C28.2951 12.3155 28.2628 12.4335 28.2239 13.77C28.1851 14.8903 28.1916 15.0016 28.308 15.1916C28.4439 15.4144 28.5086 15.4406 28.6897 15.3358C28.7997 15.2834 29.0391 14.7658 29.0132 14.6413C29.0068 14.6086 29.0068 14.2089 29.0132 13.7438L29.0197 12.9117H30.3783V13.2065C30.3783 13.5341 30.43 13.5669 30.6047 13.3703C30.6694 13.2917 30.8247 13.1738 30.9411 13.1017C31.3034 12.8724 31.2905 12.4662 30.9088 12.2173C30.6888 12.0731 28.955 12.0207 28.6509 12.1583ZM19.2507 12.6501C19.2831 12.5256 19.3931 12.3553 19.4901 12.2767C19.6583 12.1325 19.7295 12.126 20.7323 12.126H21.7868L22.0068 12.3487C22.1944 12.5387 22.2267 12.6173 22.2267 12.8728C22.2267 13.1546 22.2202 13.1677 22.0197 13.2004C21.5021 13.2921 21.418 13.279 21.3986 13.1218C21.3792 12.9842 21.3533 12.9777 20.674 12.9777H19.9753L19.9883 13.7442C19.9947 14.17 20.0206 14.55 20.0465 14.5959C20.1047 14.6876 19.943 15.1135 19.7877 15.2838C19.6971 15.3886 19.6713 15.3886 19.5031 15.3034C19.3995 15.2445 19.2896 15.1462 19.2507 15.0807C19.1666 14.9169 19.1666 12.9515 19.2507 12.6501ZM15.0062 17.4912C14.7087 17.6746 14.6569 17.9105 14.6569 19.129C14.6569 20.1052 14.6698 20.2362 14.7863 20.4328C14.9868 20.7604 15.2456 20.839 16.1643 20.839C17.1477 20.839 17.1865 20.8128 16.9212 20.3345C16.7142 19.9611 16.6107 19.9218 15.912 19.9218H15.4979V18.2184H16.0026C16.2743 18.2184 16.6107 18.1987 16.7465 18.1791C16.96 18.1398 16.9859 18.1529 16.9859 18.2773C16.9859 18.3494 17.0118 18.4149 17.0441 18.4149C17.1347 18.4149 17.6976 17.8318 17.6976 17.7336C17.6976 17.6812 17.6005 17.5763 17.4776 17.5043C17.2835 17.3798 17.1606 17.3667 16.2355 17.3667C15.3362 17.3667 15.1809 17.3863 15.0062 17.4912ZM38.1803 18.422C38.3808 18.232 38.6526 18.0224 38.7819 17.9503C38.9501 17.8586 39.0925 17.8324 39.2995 17.8586C39.4548 17.8783 39.83 17.8914 40.1276 17.8914C40.6646 17.8914 40.684 17.8979 40.891 18.1076L41.098 18.3172L41.1304 19.562L41.131 19.5833C41.157 20.5216 41.1697 20.9812 40.9491 21.2064C40.7372 21.4226 40.3102 21.4226 39.4729 21.4226H39.4548C38.879 21.4292 38.3355 21.403 38.245 21.3636C38.1544 21.3309 38.0185 21.2064 37.9474 21.0885C37.8309 20.8985 37.818 20.7544 37.818 19.8175V18.7562L38.1803 18.422ZM40.2893 20.4857C40.3152 20.4464 40.3411 20.0402 40.3411 19.5751V18.743H38.5749L38.6202 19.0444C38.6396 19.2148 38.659 19.6275 38.659 19.9616V20.5775L39.4548 20.5644C39.9335 20.5578 40.2635 20.5251 40.2893 20.4857ZM42.8449 18.0941C42.5731 18.3038 42.5279 18.592 42.5537 19.8761L42.5731 21.0488L42.7866 21.2388L42.9937 21.4288H44.1646C45.3938 21.4288 45.6267 21.383 45.7755 21.1078C45.8144 21.0292 45.8402 20.4592 45.8402 19.7254L45.8403 19.5666C45.8411 18.7442 45.8414 18.3431 45.6436 18.1468C45.4552 17.96 45.0872 17.959 44.3686 17.957L44.2164 17.9565C43.0972 17.9565 43.0001 17.9631 42.8449 18.0941ZM44.9992 20.5968L44.7016 20.5509C44.5334 20.5313 44.1711 20.5116 43.8929 20.5116H43.3818V18.7427H44.9992V20.5968ZM42.3728 14.9035C42.3469 13.6194 42.3922 13.3311 42.6639 13.1215C42.8192 12.9905 42.9162 12.9839 44.0354 12.9839L44.1877 12.9844C44.9062 12.9864 45.2742 12.9874 45.4626 13.1742C45.6604 13.3704 45.6601 13.7716 45.6594 14.594L45.6593 14.7528C45.6593 15.4866 45.6334 16.0566 45.5946 16.1352C45.4458 16.4103 45.2129 16.4562 43.9837 16.4562H42.8127L42.6057 16.2662L42.3922 16.0762L42.3728 14.9035ZM44.8182 15.6242V13.7701H43.2009V15.539H43.7119C43.9901 15.539 44.3524 15.5586 44.5206 15.5783L44.8182 15.6242ZM15.0321 22.6478C14.7022 22.8247 14.6569 23.0147 14.6569 24.2529C14.6569 25.288 14.6698 25.3929 14.7992 25.6025C15.0062 25.9563 15.1939 25.9956 16.3584 25.9498C17.1614 25.9242 17.3376 25.9186 17.4501 25.8301C17.4817 25.8052 17.5082 25.7738 17.5423 25.7336C17.6976 25.5501 17.6976 25.5305 17.6976 24.2595L17.6972 24.1532C17.6944 23.3159 17.6931 22.9138 17.4941 22.7208C17.3102 22.5425 16.9576 22.5427 16.2793 22.543L16.1966 22.543C15.4462 22.5495 15.1615 22.5692 15.0321 22.6478ZM16.9212 25.0915L15.4979 25.0653V23.4012L16.0349 23.375C16.326 23.3685 16.643 23.3488 16.7465 23.3423L16.9212 23.3292V25.0915ZM19.2121 25.2611C19.1539 24.8483 19.2315 23.0925 19.3156 22.9287C19.4062 22.7584 19.4385 22.7649 19.7555 23.0729L20.0272 23.3415V25.0318H20.4283C20.6483 25.0318 20.9912 24.999 21.1853 24.9597C21.4893 24.8942 21.5864 24.9007 21.7934 24.9859C22.1039 25.1235 22.1169 25.3528 21.8322 25.7066L21.6381 25.949H19.652L19.4579 25.7655C19.3156 25.628 19.2509 25.4904 19.2121 25.2611ZM37.818 23.1848V24.4754C37.818 25.8709 37.8568 26.0543 38.1738 26.1985C38.2838 26.2509 38.7367 26.2771 39.5001 26.2771H40.6581L40.8845 26.0543L41.1174 25.8381V23.27L40.9169 23.0341L40.7163 22.8048H38.2191L37.818 23.1848ZM40.3411 25.4254H38.5943V23.591H40.3411V25.4254ZM42.5979 23.2431L43.0185 22.8041H45.5027L45.8392 23.2103V25.8571L45.4445 26.2437L44.2477 26.2633C42.9149 26.2895 42.8308 26.2633 42.6303 25.8702C42.5332 25.6868 42.5268 25.4968 42.5591 24.4485L42.5979 23.2431ZM45.0693 25.3592L45.0305 23.6231L43.3807 23.5837V25.3592H45.0693ZM24.2004 28.0327C23.8187 28.2751 23.8122 28.2882 23.7928 29.6509L23.7734 30.9154L23.974 31.1512L24.181 31.3871H25.2614C26.4453 31.3871 26.5359 31.3609 26.73 30.9875C26.8076 30.8237 26.8205 30.673 26.7817 30.2078L26.7429 29.6313L26.4971 29.5592C26.0571 29.4282 25.9989 29.4544 25.9536 29.7885C25.9342 29.9589 25.9148 30.1816 25.9148 30.2799V30.4699H25.3196C24.9897 30.4699 24.6791 30.4437 24.6338 30.4175C24.5756 30.3716 24.5562 30.1358 24.5692 29.4479C24.5886 28.5568 24.595 28.5372 24.7374 28.5175C24.815 28.5044 24.8797 28.4913 24.8797 28.4848C24.8797 28.4819 24.8711 28.4569 24.8578 28.4176C24.8404 28.3664 24.8147 28.2912 24.7891 28.2096C24.6791 27.9017 24.498 27.8427 24.2004 28.0327ZM30.2617 28.6353C30.2099 28.6353 30.2228 28.3142 30.2811 28.1242C30.3393 27.9408 30.8633 28.0849 31.1027 28.3535C31.2062 28.4649 31.2127 28.6025 31.1739 29.749C31.1428 30.7598 31.1366 30.9626 31.0428 31.107C31.0193 31.1432 30.9902 31.1758 30.9539 31.2165L30.7792 31.4196H29.7829C28.2949 31.4196 28.1785 31.3476 28.1785 30.3714C28.1785 29.7883 28.1785 29.7818 28.3596 29.7032C28.6378 29.5787 28.8513 29.5721 28.8707 29.6835C28.8772 29.7359 28.9031 29.9521 28.9225 30.1552L28.9613 30.5221L30.3134 30.5352V29.5852C30.3134 29.0611 30.2875 28.6353 30.2617 28.6353Z" fill="white"/>
<path d="M71.7803 8.14497H75.0542L76.594 24.5101L83.7547 8.14497H87.238L77.1023 30.1871H74.3815L71.7803 8.14497ZM70.0462 8.14497H73.335L71.272 23.7531L70.1807 30.1871H66.2789L70.0462 8.14497ZM85.5636 8.14497H88.8674L85.0852 30.1871H81.1834L82.3645 23.4049L85.5636 8.14497Z" fill="white"/>
<path d="M87.5537 22.6026L87.7032 21.4217C87.8228 20.4024 88.062 19.4133 88.4208 18.4545C88.7795 17.4957 89.2629 16.6379 89.8708 15.8809C90.4788 15.124 91.2113 14.5336 92.0684 14.1097C92.9355 13.6757 93.9371 13.4739 95.0732 13.5041C96.1496 13.5243 97.0515 13.7665 97.7791 14.2308C98.5066 14.6951 99.0647 15.3057 99.4534 16.0626C99.8521 16.8195 100.111 17.6623 100.231 18.5908C100.36 19.5193 100.375 20.4579 100.276 21.4066L100.141 22.6026C100.021 23.6219 99.7773 24.611 99.4086 25.5698C99.0498 26.5286 98.5664 27.3865 97.9585 28.1434C97.3505 28.8902 96.618 29.4756 95.7609 29.8995C94.9038 30.3234 93.9122 30.5202 92.786 30.4899C91.6897 30.4697 90.7828 30.2275 90.0652 29.7633C89.3476 29.299 88.7895 28.6884 88.3909 27.9315C87.9922 27.1745 87.7281 26.3368 87.5985 25.4184C87.4789 24.4899 87.464 23.5513 87.5537 22.6026ZM91.4555 21.4066L91.3359 22.6329C91.296 23.0063 91.2661 23.4504 91.2462 23.9651C91.2263 24.4697 91.2611 24.9693 91.3508 25.4638C91.4405 25.9584 91.6199 26.3772 91.889 26.7203C92.1581 27.0534 92.5617 27.2351 93.0999 27.2653C93.7079 27.3057 94.2112 27.1745 94.6098 26.8717C95.0085 26.569 95.3324 26.1753 95.5815 25.6909C95.8307 25.1964 96.0151 24.6766 96.1347 24.1316C96.2642 23.5765 96.3589 23.0618 96.4187 22.5874L96.5383 21.3763C96.5682 21.013 96.5881 20.574 96.5981 20.0593C96.618 19.5445 96.5831 19.0399 96.4934 18.5454C96.4037 18.0508 96.2243 17.632 95.9553 17.2888C95.6862 16.9457 95.2825 16.759 94.7444 16.7287C94.1563 16.6984 93.663 16.8347 93.2644 17.1375C92.8757 17.4402 92.5568 17.8389 92.3076 18.3334C92.0584 18.828 91.8641 19.3477 91.7246 19.8927C91.595 20.4377 91.5053 20.9424 91.4555 21.4066Z" fill="white"/>
<path d="M104.523 24.071L110.338 13.8069H114.165L111.355 30.1871H107.603L109.382 19.8927L103.566 30.1871H99.7243L102.535 13.8069H106.287L104.523 24.071ZM111.475 7.34262L114.27 7.2972C114.2 8.25599 113.926 9.06845 113.448 9.73455C112.979 10.4007 112.362 10.9002 111.594 11.2333C110.837 11.5664 110.005 11.7228 109.098 11.7026C107.772 11.6824 106.686 11.2838 105.839 10.5066C104.991 9.72951 104.573 8.66474 104.583 7.31234H107.378C107.348 7.91789 107.468 8.41243 107.737 8.79595C108.016 9.17946 108.485 9.37627 109.142 9.38636C109.79 9.39645 110.308 9.20974 110.697 8.82622C111.096 8.44271 111.355 7.94817 111.475 7.34262Z" fill="white"/>
<path d="M133.648 8.14497L133.065 11.5361H125.336L122.122 30.1871H118.22L121.988 8.14497H133.648Z" fill="white"/>
<path d="M129.031 22.6026L129.18 21.4217C129.3 20.4024 129.539 19.4133 129.898 18.4545C130.256 17.4957 130.74 16.6379 131.348 15.8809C131.956 15.124 132.688 14.5336 133.545 14.1097C134.412 13.6757 135.414 13.4739 136.55 13.5041C137.626 13.5243 138.528 13.7665 139.256 14.2308C139.983 14.6951 140.542 15.3057 140.93 16.0626C141.329 16.8195 141.588 17.6623 141.708 18.5908C141.837 19.5193 141.852 20.4579 141.752 21.4066L141.618 22.6026C141.498 23.6219 141.254 24.611 140.885 25.5698C140.527 26.5286 140.043 27.3865 139.435 28.1434C138.827 28.8902 138.095 29.4756 137.238 29.8995C136.381 30.3234 135.389 30.5202 134.263 30.4899C133.167 30.4697 132.26 30.2275 131.542 29.7633C130.824 29.299 130.266 28.6884 129.868 27.9315C129.469 27.1745 129.205 26.3368 129.075 25.4184C128.956 24.4899 128.941 23.5513 129.031 22.6026ZM132.932 21.4066L132.813 22.6329C132.773 23.0063 132.743 23.4504 132.723 23.9651C132.703 24.4697 132.738 24.9693 132.828 25.4638C132.917 25.9584 133.097 26.3772 133.366 26.7203C133.635 27.0534 134.039 27.2351 134.577 27.2653C135.185 27.3057 135.688 27.1745 136.087 26.8717C136.485 26.569 136.809 26.1753 137.058 25.6909C137.307 25.1964 137.492 24.6766 137.611 24.1316C137.741 23.5765 137.836 23.0618 137.895 22.5874L138.015 21.3763C138.045 21.013 138.065 20.574 138.075 20.0593C138.095 19.5445 138.06 19.0399 137.97 18.5454C137.881 18.0508 137.701 17.632 137.432 17.2888C137.163 16.9457 136.759 16.759 136.221 16.7287C135.633 16.6984 135.14 16.8347 134.741 17.1375C134.352 17.4402 134.034 17.8389 133.784 18.3334C133.535 18.828 133.341 19.3477 133.201 19.8927C133.072 20.4377 132.982 20.9424 132.932 21.4066Z" fill="white"/>
<path d="M147.121 17.1677L143.802 36.4849H140.08L143.967 13.8069H147.39L147.121 17.1677ZM154.656 21.3915L154.521 22.5723C154.411 23.4504 154.227 24.3587 153.968 25.2973C153.719 26.2359 153.36 27.1089 152.892 27.9163C152.433 28.7136 151.835 29.3545 151.098 29.8389C150.36 30.3133 149.458 30.5303 148.392 30.4899C147.495 30.4596 146.772 30.1922 146.224 29.6876C145.676 29.1829 145.262 28.5471 144.983 27.7801C144.714 27.013 144.54 26.2056 144.46 25.3579C144.38 24.5101 144.365 23.7329 144.415 23.0265L144.639 21.1947C144.779 20.3974 144.983 19.5546 145.252 18.6665C145.531 17.7682 145.905 16.9255 146.374 16.1383C146.852 15.341 147.435 14.6951 148.123 14.2005C148.81 13.6959 149.633 13.4587 150.589 13.489C151.646 13.5092 152.468 13.7766 153.056 14.2913C153.654 14.796 154.083 15.4469 154.342 16.2443C154.601 17.0315 154.74 17.8843 154.76 18.8027C154.78 19.7111 154.745 20.574 154.656 21.3915ZM150.769 22.5874L150.888 21.3612C150.928 20.9777 150.968 20.5286 151.008 20.0138C151.048 19.4991 151.033 18.9945 150.963 18.5C150.893 18.0054 150.724 17.5967 150.455 17.2737C150.186 16.9406 149.772 16.764 149.214 16.7438C148.706 16.7237 148.267 16.8246 147.898 17.0466C147.53 17.2687 147.216 17.5613 146.957 17.9247C146.707 18.288 146.503 18.6917 146.344 19.1358C146.184 19.5698 146.07 19.9987 146 20.4226L145.521 23.7985C145.492 24.3032 145.517 24.8179 145.596 25.3427C145.686 25.8675 145.88 26.3116 146.179 26.6749C146.488 27.0383 146.947 27.2351 147.555 27.2653C148.163 27.2956 148.666 27.1644 149.064 26.8717C149.463 26.569 149.777 26.1753 150.006 25.6909C150.236 25.2065 150.405 24.6867 150.515 24.1316C150.634 23.5765 150.719 23.0618 150.769 22.5874Z" fill="white"/>
<path d="M154.867 22.6026L155.016 21.4217C155.136 20.4024 155.375 19.4133 155.734 18.4545C156.093 17.4957 156.576 16.6379 157.184 15.8809C157.792 15.124 158.524 14.5336 159.381 14.1097C160.248 13.6757 161.25 13.4739 162.386 13.5041C163.463 13.5243 164.365 13.7665 165.092 14.2308C165.82 14.6951 166.378 15.3057 166.766 16.0626C167.165 16.8195 167.424 17.6623 167.544 18.5908C167.673 19.5193 167.688 20.4579 167.589 21.4066L167.454 22.6026C167.334 23.6219 167.09 24.611 166.722 25.5698C166.363 26.5286 165.879 27.3865 165.271 28.1434C164.663 28.8902 163.931 29.4756 163.074 29.8995C162.217 30.3234 161.225 30.5202 160.099 30.4899C159.003 30.4697 158.096 30.2275 157.378 29.7633C156.661 29.299 156.102 28.6884 155.704 27.9315C155.305 27.1745 155.041 26.3368 154.911 25.4184C154.792 24.4899 154.777 23.5513 154.867 22.6026ZM158.768 21.4066L158.649 22.6329C158.609 23.0063 158.579 23.4504 158.559 23.9651C158.539 24.4697 158.574 24.9693 158.664 25.4638C158.753 25.9584 158.933 26.3772 159.202 26.7203C159.471 27.0534 159.875 27.2351 160.413 27.2653C161.021 27.3057 161.524 27.1745 161.923 26.8717C162.321 26.569 162.645 26.1753 162.894 25.6909C163.144 25.1964 163.328 24.6766 163.448 24.1316C163.577 23.5765 163.672 23.0618 163.732 22.5874L163.851 21.3763C163.881 21.013 163.901 20.574 163.911 20.0593C163.931 19.5445 163.896 19.0399 163.806 18.5454C163.717 18.0508 163.537 17.632 163.268 17.2888C162.999 16.9457 162.595 16.759 162.057 16.7287C161.469 16.6984 160.976 16.8347 160.577 17.1375C160.189 17.4402 159.87 17.8389 159.621 18.3334C159.371 18.828 159.177 19.3477 159.038 19.8927C158.908 20.4377 158.818 20.9424 158.768 21.4066Z" fill="white"/>
<path d="M171.104 13.8069H174.871L173.809 19.378C173.63 20.3974 173.376 21.4823 173.047 22.6329C172.728 23.7733 172.299 24.8734 171.761 25.9331C171.233 26.9928 170.565 27.9062 169.758 28.6733C168.951 29.4302 167.964 29.9348 166.798 30.1871H165.826L166.2 26.9928L166.619 26.9777C167.147 26.4125 167.6 25.8473 167.979 25.2822C168.358 24.7069 168.677 24.1114 168.936 23.4958C169.205 22.87 169.424 22.2241 169.594 21.558C169.773 20.8818 169.932 20.1602 170.072 19.3931L171.104 13.8069ZM172.06 13.8069H181L178.19 30.1871H174.452L176.695 17.1829H171.492L172.06 13.8069ZM165.557 26.9474H180.761L179.356 35.0921H175.603L176.455 30.1871H168.816L167.979 35.0921H164.152L165.557 26.9474Z" fill="white"/>
</svg>
